<svg xmlns="http://www.w3.org/2000/svg" xml:space="preserve" data-id="lg_SP4RLkE4c6J4xk4Ku0" data-version="1" viewBox="717.5 -2.5 565 91"><g data-padding="20"><g transform="translate(10 1.536)scale(.96429)"><rect width="560" height="80.23" x="346.167" y="-399.91" fill="none" rx="0" ry="0" transform="translate(400.5 400.05)"/><path fill="#111" d="M761.637 66.665q-3.62.14-6.63-.88-3.02-1.03-4.9-2.81-1.88-1.77-2.38-4.15t.85-4.87q1.85-2.98 7.38-1.77 4.19.85 5.79.92t2.73-.42q5.19-1.71 5.83-3.7.42-1.49-1.85-3.48-.92-.85-2.06-1.7-1.13-.85-1.92-1.7-3.55-2.63-5.57-6.07-2.02-3.45-1.67-7.49.36-4.05 1.35-6.71 1-2.67 2.49-4.73 2.62-3.62 6.81-5.89 4.83-2.48 7.74-3.19 5.75-1.28 11.65-.22 1.98.36 3.4 1.35 1.42 1 2.84 2.06 2.49 2.49 1.21 5.04-.5 1.14-1.56 1.85-1.07.71-2.27.78.14 1.92-.71 2.84-1.64 1.63-5.68 2.13-5.83-.43-7.88.64-2.42 1.28-1.78 5.54.14.92 1.17 1.91 1.03 1 2.42 2.13 1.38 1.14 2.91 2.56 1.52 1.42 2.66 3.27 3.98 6.53-.64 15.26-3.41 6.53-11.64 9.8-4.26 1.7-10.09 1.7m36.64-35.27q1.99-1.92 4.44-2.24t4.33.53 2.77 2.74q.89 1.88-.25 4.29-2.41 3.55-3.83 7.67t-2.63 8.31q6.53-4.12 10.93-12.29 1.28-2.41 2.77-4.9l1.07-1.98 2.13-3.41q.42-1.35 1.49-1.74 1.06-.39 2.31-.39 1.24 0 2.52.03 1.27.04 2.34-.67 1.06-.71 2.52-.53 1.45.17 2.63.95 1.17.79 1.77 1.89t.11 2.16q-2.98 6.39-8.17 23.79-1.2 3.9-2.27 6.53-1.77 2.2-4.47 2.98t-5.08.46-3.8-1.63-.64-3.3q-1.98 1.63-4.11 2.98t-5.15 1.77q-3.02.43-5.79-.24-2.77-.68-4.72-2.6-1.95-1.91-2.09-5.11-.43-11.22 8.87-26.05m49.56 1.77 1.35.36q3.55-5.33 9.87-6.39 2.06-.36 5.07-.5 3.02-.14 5.19 1.35 2.16 1.49 3.23 3.83 1.84 4.19.56 10.3-.71 3.33-1.7 7.35-.99 4.01-2.98 7.91-1.99 3.91-5.18 7.31-3.2 3.41-8.31 5.4-3.05 1.21-5.36.89t-3.45-.96q-1.13-.64-1.56-1.85-1.42 4.05-2.66 8.2-1.24 4.16-3.3 7.92-1.42.92-3.48 1.39-2.06.46-4.05-.22-1.99-.67-2.87-2.41-.89-1.74-.89-3.8 0-2.77 1.35-6.75 1.99-5.89 3.23-9.08 1.24-3.2 1.6-4.16.35-.96.71-2.02 1.56-4.12 2.3-6.71.75-2.59 1.39-4.51v-.07q.71-3.12 2.24-6.64 1.52-3.51 2.09-4.29 1.21-1.21 2.48-1.49 1.28-.29 2.92-.36Zm6.74 12.21q-.85 1.49-2.84 2.77l-.64 1.49q-.71 1.85-1.34 3.77-.64 1.91-1.42 3.76.71.71 1.06 1.35 3.98-3.48 7.24-9.16 1.28-2.34 1.67-4.69.39-2.34.18-2.98t-.68-.64q-.46 0-.92.25t-.71.5.04.03q-.78.93-1.14 1.6-.35.67-.5 1.95m44.02 6.68q-1.35.64-2.62.99-1.28.36-2.99.71-4.47.92-6.46 1.07.22.71 2.13 1.7 1.28.21 2.81-.39 1.52-.6 3.19-1.14 1.67-.53 3.27-.6t3.02 1.21q.56 1.27.92 1.49.35.21.64.21.28 0 .64.21.35.22 1.03 1.64.67 1.42-.36 2.69-1.03 1.28-3.16 2.21-2.13.92-4.97 1.49-2.84.56-5.68.78-6.39.49-9.72-1-4.83-1.63-6.25-6.46-1.85-6.39 2.06-14.91 1.77-3.97 5.61-8.52 3.33-3.97 7.45-5.75 4.76-2.06 9.94-1.92 5.54.15 7.67 4.83 1.06 2.49.42 6.96-1.13 5.82-2.98 8.24-1.84 2.34-5.61 4.26m-4.11-11.22q-3.77-.78-5.9 4.26-.64 1.35-.99 2.84 2.41.28 5.11-2.7.99-1.21 1.49-2.45t.29-1.95m20.94-7.67q.99-2.56 2.81-3.87 1.81-1.31 3.47-1.63 1.67-.32 2.77.39t.75 2.2q1.35-1.35 3.9-2.49 2.56-1.13 4.05-1.56 1.49-.42 2.56-.42 2.34.14 1.35 2.55 1.2.22 1.77 1.56.57 1.35.14 2.99-.42 1.63-1.91 3.19-1.5 1.56-4.02 2.13t-4.18 2.59q-1.67 2.03-2.95 5.01-2.13 5.04-3.84 14.27-.56 3.34-4.61 5.61-3.83 2.2-7.03 1.28-3.62-1-3.19-5.33.14-3.05 1.84-8.13 1.71-5.07 2.63-7.67.92-2.59 1.28-3.94Zm49.91-5.47q2.77.36 3.73 1.96.96 1.59.75 3.4-.22 1.81-1.32 3.27t-2.45 1.53q-.49 1.49-1.56 2.06-1.06.56-2.34.78-1.28.21-2.66.46-1.39.25-2.6 1.24-1.2.99-2.02 1.95t-1.31 1.88q-.85 1.57-1.49 3.84-.15 1.56 1.49 2.91 1.91 1.49 4.19 1.31 2.27-.17 3.65.22 1.39.39 2.1 1.1 1.56 1.63-.29 3.76-3.55 5.68-11.92 6.74-2.49.36-4.97.18-2.49-.18-4.83-1.88-2.35-1.7-3.69-4.61-2.99-6.68.49-15.55 3.34-8.31 10.01-12.78 7.32-4.97 17.04-3.77m40.97 27.26q0 3.76.92 6.53 0 2.27-1.06 3.23-1.07.96-2.66.99-1.6.04-3.38-.63-1.77-.68-3.01-1.67-1.25-1-1.6-1.6-.36-.6-1.14-1.81-1.2-5.61-1.13-7.31.07-1.71.28-2.92-3.55 1.85-4.9 3.2-2.48 2.48-4.19 6.39-.57 3.12-.92 3.3-.36.18-.92.25-.57.07-1.21.5-.64.42-1.21.71-.57.28-1.13.56-1.35.79-1.78.79-4.05 1.27-7.74-1.14-1.56-1.07-2.41-2.73-.85-1.67-.43-3.59 3.06-13.13 8.38-26.77 3.27-8.3 6.25-13.13.71-1.14 1.42-2.42 1.49-2.55 2.06-3.47-.71-1.85.03-3.23.75-1.39 2.28-2.21 1.52-.81 3.51-1.1 1.99-.28 3.76-.07 4.26.64 4.55 3.34-.43 1.28-1.17 3.05-.75 1.78-1.5 3.59-.74 1.81-1.42 3.37-.67 1.56-.99 2.31-.32.74-.92 2.55-.61 1.81-1.28 3.91-.68 2.09-1.24 3.87l-.86 2.48q-.28 1-.92 3.02t-1.35 5.01q.93-.71 1.53-1.67t1.77-2.17q1.18-1.2 3.06-2.38 1.88-1.17 4.01-1.52 4.61-.78 8.38 2.98 2.84 2.84 1.77 8.52-.42 2.34-1.03 4.72-.6 2.38-.46 4.37m28.26-2.9q-1.35.64-2.63.99-1.28.36-2.98.71-4.47.92-6.46 1.07.21.71 2.13 1.7 1.28.21 2.8-.39 1.53-.6 3.2-1.14 1.67-.53 3.26-.6 1.6-.07 3.02 1.21.57 1.27.92 1.49.36.21.64.21.29 0 .64.21.36.22 1.03 1.64.68 1.42-.35 2.69-1.03 1.28-3.16 2.21-2.13.92-4.97 1.49-2.84.56-5.68.78-6.39.49-9.73-1-4.83-1.63-6.25-6.46-1.84-6.39 2.06-14.91 1.78-3.97 5.61-8.52 3.34-3.97 7.46-5.75 4.75-2.06 9.94-1.92 5.53.15 7.66 4.83 1.07 2.49.43 6.96-1.14 5.82-2.98 8.24-1.85 2.34-5.61 4.26m-4.12-11.22q-3.76-.78-5.89 4.26-.64 1.35-1 2.84 2.42.28 5.12-2.7.99-1.21 1.49-2.45.49-1.24.28-1.95"/><path fill="#111" d="M1068.507 30.045q2.69-.93 8.23-1.28 1.28.71 1.03 2.91t-1.67 3.34q-1.7 2.55-3.62 3.48-1.06.49-2.59.88t-3.73 1.03q-1.42 3.98-3.16 10.79-1.74 6.82-2.45 9.09-1.63 5.26-2.34 5.47-1.63 2.56-3.58 3.19-1.96.64-3.59.04t-2.52-2.13-.39-3.23q-.21-1.78.64-9.94.85-8.17.85-9.37-.28-.29-.71-.36t-.57-.35q-.64-.22-.99-.78-.64-1-1.35-1.42-1.28.14-2.09-.75-.82-.89-.82-2.09 0-1.21.85-2.49t2.91-1.99l7.24-2.27q.86-5.75 5.4-13.06 1.06-1.78 2.31-3.8 1.24-2.02 3.44-3.76t4.58-2.7 4.83-1.17q2.45-.22 4.51.07 4.33.57 5.75 2.91 1.7 2.98 1.52 5.36-.17 2.38-1.95 3.58-2.84 1.85-4.83.57-.78-.42-1.13-1.42-.36-.99-1.35-.71-1 .29-2.27 1.32-1.28 1.03-2.59 2.59-1.32 1.56-2.31 3.19-2.49 3.77-1.49 5.26m13.84 3.12q1-2.56 2.81-3.87t3.48-1.63q1.66-.32 2.76.39t.75 2.2q1.35-1.35 3.9-2.49 2.56-1.13 4.05-1.56 1.49-.42 2.56-.42 2.34.14 1.35 2.55 1.2.22 1.77 1.56.57 1.35.14 2.99-.42 1.63-1.91 3.19t-4.01 2.13q-2.53.57-4.19 2.59-1.67 2.03-2.95 5.01-2.13 5.04-3.83 14.27-.57 3.34-4.62 5.61-3.83 2.2-7.03 1.28-3.62-1-3.19-5.33.14-3.05 1.84-8.13 1.71-5.07 2.63-7.67.92-2.59 1.28-3.94Zm45.58 18.89q-1.35.64-2.62.99-1.28.36-2.99.71-4.47.92-6.46 1.07.22.71 2.13 1.7 1.28.21 2.81-.39 1.52-.6 3.19-1.14 1.67-.53 3.27-.6t3.02 1.21q.56 1.27.92 1.49.35.21.64.21.28 0 .64.21.35.22 1.03 1.64.67 1.42-.36 2.69-1.03 1.28-3.16 2.21-2.13.92-4.97 1.49-2.84.56-5.68.78-6.39.49-9.72-1-4.83-1.63-6.25-6.46-1.85-6.39 2.06-14.91 1.77-3.97 5.61-8.52 3.33-3.97 7.45-5.75 4.76-2.06 9.94-1.92 5.54.15 7.67 4.83 1.06 2.49.42 6.96-1.13 5.82-2.98 8.24-1.84 2.34-5.61 4.26m-4.11-11.22q-3.77-.78-5.9 4.26-.64 1.35-.99 2.84 2.41.28 5.11-2.7.99-1.21 1.49-2.45t.29-1.95m42.67-13.14q2.77.36 3.72 1.96.96 1.59.75 3.4t-1.31 3.27-2.45 1.53q-.5 1.49-1.57 2.06-1.06.56-2.34.78-1.28.21-2.66.46-1.39.25-2.59 1.24-1.21.99-2.03 1.95-.81.96-1.31 1.88-.85 1.57-1.49 3.84-.14 1.56 1.49 2.91 1.92 1.49 4.19 1.31 2.27-.17 3.66.22 1.38.39 2.09 1.1 1.56 1.63-.28 3.76-3.55 5.68-11.93 6.74-2.49.36-4.97.18-2.49-.18-4.83-1.88t-3.69-4.61q-2.98-6.68.5-15.55 3.33-8.31 10.01-12.78 7.31-4.97 17.04-3.77m11.85 4.11q.93-2.34 4.41-3.19 3.26-.86 6.1.21 2.91 1.14 2.63 3.69-.78 2.49-1.95 6.07-1.18 3.59-2.24 7.35-2.84 9.66-3.27 13.63-1.06 6.39-3.55 6.89-.71.14-1.35.21-1.56.07-1.98.85-.43.79-1.42 1.18-1 .39-2.17.35-1.17-.03-2.38-.57-1.2-.53-2.06-1.52-1.98-2.42-.78-6.46 1.14-7.74 5.75-19.67 2.2-5.89 4.26-9.02m13.42-10.65q-3.48.71-5.64-.42-2.17-1.14-2.52-2.74-.36-1.6.99-3.3 1.56-2.13 4.69-2.77 1.42-.14 2.06-.14t1.56.28q2.34.22 3.05 2.06 1 1.56.18 3.55t-4.37 3.48m15.76 12.01 1.35.36q3.55-5.33 9.87-6.39 2.06-.36 5.08-.5t5.18 1.35q2.17 1.49 3.23 3.83 1.85 4.19.57 10.3-.71 3.33-1.7 7.35-1 4.01-2.99 7.91-1.98 3.91-5.18 7.31-3.19 3.41-8.31 5.4-3.05 1.21-5.36.89-2.3-.32-3.44-.96t-1.56-1.85q-1.42 4.05-2.66 8.2-1.25 4.16-3.31 7.92-1.42.92-3.47 1.39-2.06.46-4.05-.22-1.99-.67-2.88-2.41-.88-1.74-.88-3.8 0-2.77 1.34-6.75 1.99-5.89 3.24-9.08 1.24-3.2 1.59-4.16.36-.96.71-2.02 1.56-4.12 2.31-6.71t1.38-4.51v-.07q.71-3.12 2.24-6.64 1.53-3.51 2.1-4.29 1.2-1.21 2.48-1.49 1.28-.29 2.91-.36Zm6.75 12.21q-.85 1.49-2.84 2.77l-.64 1.49q-.71 1.85-1.35 3.77-.64 1.91-1.42 3.76.71.71 1.07 1.35 3.97-3.48 7.24-9.16 1.28-2.34 1.67-4.69.39-2.34.17-2.98-.21-.64-.67-.64t-.92.25-.71.5.03.03q-.78.93-1.13 1.6-.36.67-.5 1.95m44.02 6.68q-1.35.64-2.63.99-1.28.36-2.98.71-4.47.92-6.46 1.07.21.71 2.13 1.7 1.28.21 2.8-.39 1.53-.6 3.2-1.14 1.67-.53 3.27-.6 1.59-.07 3.01 1.21.57 1.27.93 1.49.35.21.63.21.29 0 .64.21.36.22 1.03 1.64.68 1.42-.35 2.69-1.03 1.28-3.16 2.21-2.13.92-4.97 1.49-2.84.56-5.68.78-6.39.49-9.73-1-4.83-1.63-6.25-6.46-1.84-6.39 2.06-14.91 1.78-3.97 5.61-8.52 3.34-3.97 7.46-5.75 4.75-2.06 9.94-1.92 5.53.15 7.66 4.83 1.07 2.49.43 6.96-1.14 5.82-2.98 8.24-1.85 2.34-5.61 4.26m-4.12-11.22q-3.76-.78-5.89 4.26-.64 1.35-1 2.84 2.42.28 5.12-2.7.99-1.21 1.49-2.45.49-1.24.28-1.95m39.19 23.43q-2.77 2.27-6.56 3.44-3.8 1.17-7.64 1.24-3.83.08-7.17-.92-3.33-.99-5.25-3.12-2.27-2.42-1.56-4.83.35-.99 1.24-1.56t2.16-.29q.86.07 1.25-.46t.67-1.2q.29-.68.64-1.28.36-.61 1.14-.61 12.49.36 12.99-2.2-.85-.78-2.09-1.35-1.25-.56-2.53-1.13-3.12-1.42-4.18-3.13-1.35-.71-2.06-3.4-.36-1.21-.36-2.49t.43-2.34q-.22-2.77 3.41-6.11.99-.92 2.48-1.99 1.49-1.06 4.47-2.06 2.99-.99 5.93-1.45 2.95-.46 5.33-.32t3.41 1.14q1.02.99 1.63 2.48.6 1.49.39 2.91-.57 3.2-5.26 4.4-5.89.86-5.68 1.57 0 .14-.49.35 5.46 3.76 7.59 7.38 2.92 4.97.86 11.08.35 1.99-3.55 4.97-.93.71-1.64 1.28"/></g><path fill="transparent" stroke="transparent" d="M720 0h560v86H720z"/></g></svg>