<svg xmlns="http://www.w3.org/2000/svg" version="1.1" xmlns:xlink="http://www.w3.org/1999/xlink" xmlns:svgjs="http://svgjs.dev/svgjs" width="2000" height="2250" viewBox="0 0 2000 2250"><g transform="matrix(1,0,0,1,0.0004624580885774776,0)"><svg viewBox="0 0 320 360" data-background-color="#ffffff" preserveAspectRatio="xMidYMid meet" height="2250" width="2000" xmlns="http://www.w3.org/2000/svg" xmlns:xlink="http://www.w3.org/1999/xlink"><g id="tight-bounds" transform="matrix(1,0,0,1,-0.00007399329416557521,0)"><svg viewBox="0 0 320 360" height="360" width="320"><g><svg></svg></g><g><svg viewBox="0 0 320 360" height="360" width="320"><g><path transform="translate(-17.30355,3.60951) scale(3.54253,3.54253)" d="M50 95v0c-2.2 0-4.1-1.4-4.7-3.5-0.3-1.1-1.5-1.7-2.5-1.4-0.4 0.1-0.8 0.4-1.1 0.8-1.6 2.2-4.6 2.8-6.9 1.2-1.4-0.9-2.2-2.5-2.1-4.2 0-1.1-0.9-2.1-2-2.1-0.5 0-0.9 0.1-1.3 0.4-2.2 1.6-5.3 1.2-6.9-1-1-1.3-1.3-3-0.7-4.6 0.4-1.1-0.2-2.2-1.3-2.6-0.4-0.1-0.9-0.1-1.3 0-2.6 0.9-5.4-0.5-6.3-3.1-0.5-1.5-0.3-3.3 0.7-4.6 0.7-0.9 0.5-2.2-0.4-2.8-0.4-0.3-0.8-0.4-1.3-0.4-2.7 0.1-5-2.1-5-4.8 0-1.7 0.8-3.2 2.1-4.2 0.9-0.6 1.1-1.9 0.5-2.8-0.3-0.4-0.6-0.6-1.1-0.8-2.6-0.8-4.1-3.6-3.3-6.2 0.5-1.6 1.7-2.8 3.3-3.3 1.1-0.3 1.7-1.5 1.4-2.5-0.1-0.4-0.4-0.8-0.8-1.1-2.2-1.6-2.8-4.6-1.2-6.9 0.9-1.4 2.5-2.2 4.2-2.1 1.1 0 2.1-0.9 2.1-2 0-0.5-0.1-0.9-0.4-1.3-1.6-2.2-1.2-5.3 1-6.9 1.3-1 3-1.3 4.6-0.7 1.1 0.4 2.2-0.2 2.6-1.3 0.1-0.4 0.1-0.9 0-1.3-0.9-2.6 0.5-5.4 3.1-6.3 1.5-0.5 3.3-0.3 4.6 0.7 0.9 0.7 2.2 0.5 2.8-0.4 0.3-0.4 0.4-0.8 0.4-1.3-0.1-2.7 2.1-5 4.8-5 1.7 0 3.2 0.8 4.2 2.1 0.6 0.9 1.9 1.1 2.8 0.5 0.4-0.3 0.6-0.6 0.8-1.1 0.8-2.6 3.6-4.1 6.2-3.3 1.6 0.5 2.8 1.7 3.3 3.3v0c0.2 0.7 0.8 1.3 1.6 1.4 0.8 0.1 1.5-0.2 2-0.8 1.6-2.2 4.6-2.8 6.9-1.2 1.4 0.9 2.2 2.5 2.1 4.2 0 1.1 0.9 2.1 2 2.1 0.5 0 0.9-0.1 1.3-0.4 2.2-1.6 5.3-1.2 6.9 1 1 1.3 1.3 3 0.7 4.6-0.4 1.1 0.2 2.2 1.3 2.6 0.4 0.1 0.9 0.1 1.3 0 2.6-0.9 5.4 0.5 6.3 3.1 0.5 1.5 0.3 3.3-0.7 4.6-0.7 0.9-0.5 2.2 0.4 2.8 0.4 0.3 0.8 0.4 1.3 0.4 2.7-0.1 5 2.1 5 4.8 0 1.7-0.8 3.2-2.1 4.2-0.7 0.4-1 1.2-0.9 2 0.1 0.8 0.7 1.4 1.4 1.6 2.6 0.8 4.1 3.6 3.3 6.2-0.5 1.6-1.7 2.8-3.3 3.3-1.1 0.3-1.7 1.5-1.4 2.5 0.1 0.4 0.4 0.8 0.8 1.1 2.2 1.6 2.8 4.6 1.2 6.9-0.9 1.4-2.5 2.2-4.2 2.1-0.8 0-1.5 0.4-1.9 1.1-0.4 0.7-0.3 1.5 0.2 2.2 1.6 2.2 1.2 5.3-1 6.9-1.3 1-3 1.3-4.6 0.7-1.1-0.4-2.2 0.2-2.6 1.3-0.1 0.4-0.1 0.9 0 1.3 0.9 2.6-0.5 5.4-3.1 6.3-1.5 0.5-3.3 0.3-4.6-0.7-0.9-0.7-2.2-0.5-2.8 0.4-0.3 0.4-0.4 0.8-0.4 1.3 0.1 2.7-2.1 5-4.8 5-1.7 0-3.2-0.8-4.2-2.1-0.4-0.6-1.2-1-2-0.8-0.8 0.1-1.4 0.7-1.6 1.4-0.6 2.1-2.5 3.5-4.7 3.5zM43.3 87.2c0.3 0 0.5 0 0.8 0.1 1.9 0.3 3.4 1.6 3.9 3.4 0.3 1.1 1.5 1.7 2.5 1.3 0.6-0.2 1.1-0.7 1.3-1.3 0.8-2.6 3.6-4.1 6.2-3.3 1 0.3 2 1 2.6 1.9 0.7 0.9 1.9 1.1 2.9 0.4 0.5-0.4 0.8-1 0.8-1.6-0.1-2.7 2.1-5 4.8-5 1.1 0 2.2 0.3 3.1 1 0.9 0.7 2.2 0.5 2.8-0.4 0.4-0.5 0.5-1.3 0.3-1.9-0.9-2.6 0.4-5.4 3-6.3 1.1-0.4 2.2-0.4 3.3 0 1.1 0.4 2.2-0.2 2.6-1.3 0.2-0.6 0.1-1.4-0.3-1.9-1.6-2.2-1.2-5.3 1-6.9 0.9-0.7 2-1 3.1-1 1.1 0 2-0.9 2.1-2 0-0.7-0.3-1.3-0.9-1.7-2.2-1.6-2.8-4.6-1.2-6.9 0.6-0.9 1.5-1.6 2.6-1.9 1.1-0.3 1.7-1.5 1.3-2.5-0.2-0.6-0.7-1.1-1.3-1.3-2.6-0.8-4.1-3.6-3.3-6.2 0.3-1 1-2 1.9-2.6 0.9-0.7 1.1-2 0.4-2.9-0.4-0.5-1-0.8-1.6-0.8-2.7 0.1-5-2.1-5-4.8 0-1.1 0.3-2.2 1-3.1 0.7-0.9 0.5-2.2-0.4-2.8-0.5-0.4-1.3-0.5-1.9-0.3-2.6 0.9-5.4-0.4-6.3-3-0.4-1.1-0.4-2.2 0-3.3 0.4-1.1-0.2-2.2-1.3-2.6-0.6-0.2-1.4-0.1-1.9 0.3-2.2 1.6-5.3 1.2-6.9-1-0.7-0.9-1-2-1-3.1 0-1.1-0.9-2-2.1-2-0.6 0-1.3 0.3-1.6 0.8-1.6 2.2-4.6 2.8-6.9 1.2-0.9-0.6-1.6-1.5-1.9-2.6v0c-0.3-1.1-1.5-1.7-2.5-1.3-0.6 0.2-1.1 0.7-1.3 1.3-0.8 2.6-3.6 4.1-6.2 3.3-1-0.3-2-1-2.6-1.9-0.7-0.9-1.9-1.1-2.9-0.4-0.5 0.4-0.8 1-0.8 1.6 0.1 2.7-2.1 5-4.8 5-1.1 0-2.2-0.3-3.1-1-0.9-0.7-2.2-0.5-2.8 0.4-0.4 0.5-0.5 1.3-0.3 1.9 0.9 2.6-0.4 5.4-3 6.3-1.1 0.4-2.2 0.4-3.3 0-1.1-0.4-2.2 0.2-2.6 1.3-0.2 0.6-0.1 1.4 0.3 1.9 1.6 2.2 1.2 5.3-1 6.9-0.9 0.7-2 1-3.1 1-1.1 0-2 0.9-2 2.1 0 0.6 0.3 1.3 0.8 1.6 2.2 1.6 2.8 4.6 1.2 6.9-0.6 0.9-1.5 1.6-2.6 1.9-1.1 0.3-1.7 1.5-1.3 2.5 0.2 0.6 0.7 1.1 1.3 1.3 2.6 0.8 4.1 3.6 3.3 6.2-0.3 1-1 2-1.9 2.6-0.9 0.7-1.1 1.9-0.4 2.9 0.4 0.5 1 0.8 1.6 0.8 2.7-0.1 5 2.1 5 4.8 0 1.1-0.3 2.2-1 3.1-0.7 0.9-0.5 2.2 0.4 2.8 0.5 0.4 1.3 0.5 1.9 0.3 2.6-0.9 5.4 0.4 6.3 3 0.4 1.1 0.4 2.2 0 3.3-0.4 1.1 0.2 2.2 1.3 2.6 0.6 0.2 1.4 0.1 1.9-0.3 2.2-1.6 5.3-1.2 6.9 1 0.7 0.9 1 2 1 3.1 0 1.1 0.9 2 2 2.1 0.7 0 1.3-0.3 1.7-0.9 1-1.3 2.5-2.1 4.1-2.1z" fill="#1d597d" fill-rule="nonzero" stroke="none" stroke-width="1" stroke-linecap="butt" stroke-linejoin="miter" stroke-miterlimit="10" stroke-dasharray="" stroke-dashoffset="0" font-family="none" font-weight="none" font-size="none" text-anchor="none" style="mix-blend-mode: normal" data-fill-palette-color="tertiary"></path></g><g transform="matrix(1,0,0,1,70.08999999999999,90.08999999999999)"><svg viewBox="0 0 179.82000000000002 179.82000000000002" height="179.82000000000002" width="179.82000000000002"><g><svg viewBox="0 0 179.82000000000002 179.82000000000002" height="179.82000000000002" width="179.82000000000002"><g><svg viewBox="0 0 179.82000000000002 179.82000000000002" height="179.82000000000002" width="179.82000000000002"><g id="textblocktransform"><svg viewBox="0 0 179.82000000000002 179.82000000000002" height="179.82000000000002" width="179.82000000000002" id="textblock"><g><svg viewBox="0 0 179.82000000000002 179.82000000000002" height="179.82000000000002" width="179.82000000000002"><g transform="matrix(1,0,0,1,56.01916656224264,47.526019535678344)"><svg viewBox="0 0 67.78166687551474 84.76796092864333" height="84.76796092864333" width="67.78166687551474"><g><svg xmlns="http://www.w3.org/2000/svg" xmlns:xlink="http://www.w3.org/1999/xlink" version="1.1" x="0" y="0" viewBox="14.017646406981724 4.999999999999999 71.9652797114175 90" enable-background="new 0 0 100 100" xml:space="preserve" height="84.76796092864333" width="67.78166687551474" class="icon-xg-0" data-fill-palette-color="accent" id="xg-0"><g fill="#83b6b9" data-fill-palette-color="accent"><path fill-rule="evenodd" clip-rule="evenodd" d="M80.208 8.35c-0.833 0.434-2.184 0.567-4.05 0.4-1.834-0.2-3.384-0.633-4.65-1.3C74.041 6.717 76.941 7.017 80.208 8.35zM77.908 15.45c1.5-0.434 3.467-0.383 5.899 0.15 0.733 0.167 1.267 0.7 1.601 1.6 0.366 0.967 0.55 2.133 0.55 3.5 0.1 5.6-0.101 10.2-0.601 13.8-0.366 2.5-0.55 5.583-0.55 9.25 0.067 4.167 0.101 7.284 0.101 9.35-0.134 7.867-0.15 16.767-0.051 26.7 0 3.2-1.316 5.566-3.949 7.1-2.467 1.4-5.067 2.366-7.801 2.9-4.933 0.966-11.8 1.333-20.6 1.1l-13.3-0.75c-5.367-0.3-9.817-0.367-13.351-0.2-1.033 0.033-1.732-0.017-2.1-0.15-0.733-0.233-1.15-0.833-1.25-1.8-1.5-1-2.333-2.417-2.5-4.25 0-0.2 0.083-1.85 0.25-4.95 0.033-0.833-0.017-1.917-0.15-3.25-0.133-1.7-0.199-2.8-0.199-3.3-0.334-7.767-0.434-13.633-0.301-17.6 0.101-4.067 0.15-6.767 0.15-8.1-0.1-3.034-0.383-5.717-0.85-8.05-0.167-0.966-0.2-2.466-0.101-4.5-0.267-5.8-0.7-10.35-1.3-13.65-0.133-0.633-0.083-1.017 0.15-1.15 0.399-0.267 0.633-0.617 0.699-1.05 0-0.134-0.017-0.55-0.05-1.25-0.3-2.5 0.851-4.083 3.45-4.75 4.434-1.134 10.083-1.434 16.95-0.9 0.5 0.067 1.283 0.15 2.35 0.25 2.267-0.1 5.217-0.1 8.851 0 4.666 0.233 7.6 0.35 8.8 0.35 1.533 0 3.667 0.184 6.399 0.55 3.033 0.4 5.167 0.633 6.4 0.7 1.467 0.067 2.55 0.067 3.25 0 0.9-0.1 1.35 0.233 1.35 1 0 0.733-0.482 1.1-1.449 1.1l-1.2-0.25c-1.3-0.2-2.15 0.417-2.55 1.85-0.268 0.833-0.434 2.117-0.5 3.85l-0.15 6c0 0.833-0.35 1.383-1.05 1.65-0.667 0.2-1.2-0.133-1.601-1-0.5-0.967-1.467-2.2-2.899-3.7-0.7 0.7-1.4 1.967-2.101 3.8-0.333 0.966-0.949 1.35-1.85 1.15-0.633-0.133-0.95-0.684-0.95-1.65l-0.3-8.7c-0.033-0.667-0.066-1.667-0.1-3-0.233-1.167-0.934-1.717-2.101-1.65-1.433 0.066-3.816-0.034-7.149-0.3-3.101-0.2-5.5-0.216-7.2-0.05-0.767 0.1-1.717 0.083-2.851-0.05-1.267-0.134-2.217-0.217-2.85-0.25-1.7 0-3-0.05-3.9-0.15-2.5-0.233-4.866 0.233-7.1 1.4-1.767 0.966-3.633 2.483-5.6 4.55-0.533 0.6-0.733 1.316-0.601 2.15 0.233 1.033 0.384 1.85 0.45 2.45 0.566-0.633 2.117-2.117 4.65-4.45 1.899-1.7 3.316-3.2 4.25-4.5l0.6-0.65c0.233-0.2 0.5-0.167 0.8 0.1 0.5 0.433 0.417 0.933-0.25 1.5l-8.649 7.95c-0.9 0.934-1.4 1.6-1.5 2-0.101 0.367-0.018 1.2 0.25 2.5l8.699-7.95c0.533-0.434 0.967-0.483 1.301-0.15 0.467 0.466 0.366 0.883-0.301 1.25-0.8 0.466-1.699 1.2-2.699 2.2-1.367 1.367-2.167 2.167-2.4 2.4-0.333 0.267-1.233 1.184-2.7 2.75-1.5 1.6-1.967 3.684-1.399 6.25l7.699-7.4c0.533-0.533 1.051-0.967 1.551-1.3 0.166-0.167 0.366-0.15 0.6 0.05 0.167 0.1 0.25 0.2 0.25 0.3 0.033 0.167-0.017 0.316-0.15 0.45l-1.85 1.9c-3.434 3.034-5.583 4.967-6.45 5.8-1.167 1.133-1.8 2.066-1.899 2.8-0.067 0.733 0.267 1.967 1 3.7 1.467-1.133 3.583-3.25 6.35-6.35l1.05-1.4c0.3-0.3 0.567-0.367 0.8-0.2 0.434 0.167 0.5 0.483 0.2 0.95-0.933 1.167-1.649 2-2.149 2.5-1.5 1.6-2.667 2.733-3.5 3.4-2.7 2.133-3.634 4.833-2.801 8.1l8.65-9.05c0.2 0.7 0.167 1.333-0.1 1.9-0.101 0.2-0.4 0.566-0.9 1.1l-4.25 4.2c-1.3 1.233-2.217 2.4-2.75 3.5-0.667 1.367-0.9 2.833-0.7 4.4 0 0.2-0.05 0.9-0.149 2.1-0.067 0.867 0.017 1.617 0.25 2.25 1.133-1.067 2.5-2.75 4.1-5.05 1.667-2.434 2.95-4.134 3.85-5.1l0.7 0.5c-1.433 2.2-2.517 3.8-3.25 4.8-1.267 1.733-2.483 3.2-3.649 4.4-1.9 1.934-2.417 4.55-1.551 7.85l6.75-9c0.167-0.3 0.417-0.383 0.75-0.25 0.5 0.2 0.567 0.533 0.2 1l-1.8 2.35c-0.5 0.633-2.2 2.867-5.1 6.7-0.601 0.8-0.95 1.683-1.051 2.65-0.033 0.7 0.051 1.767 0.25 3.2 1.334-1.333 3.334-3.8 6-7.4 0.033-0.1 0.217-0.45 0.551-1.05 0.267-0.434 0.6-0.55 1-0.35 0.433 0.267 0.5 0.633 0.199 1.1l-2.6 3.6c-1.167 1.6-2.3 3.017-3.4 4.25-1.333 1.667-1.767 3.433-1.3 5.3 0.367 0.1 0.7 0.017 1-0.25 0.134-0.167 0.317-0.467 0.55-0.9l4.45-6c0.134-0.167 0.317-0.467 0.55-0.9 0.301-0.233 0.634-0.2 1 0.1 0.301 0.233 0.351 0.483 0.15 0.75-0.333 0.267-0.55 0.467-0.65 0.6l-5.949 8.35c-0.667 1.033-1.033 1.917-1.101 2.65-0.033 0.767 0.167 1.95 0.601 3.55 0.566-1.367 1.633-2.9 3.199-4.6 1.768-1.8 2.867-3.167 3.301-4.1 0.433-0.8 0.933-1 1.5-0.6 0.333 0.233 0.449 0.483 0.35 0.75-0.066 0.1-0.267 0.333-0.6 0.7l-5.4 6c-0.467 0.433-0.783 0.75-0.95 0.95-0.3 0.4-0.217 0.8 0.25 1.2 0.4 0.333 0.8 0.333 1.2 0 0.066-0.1 0.367-0.467 0.9-1.1 1.267-1.367 2.316-2.8 3.149-4.3 0.3-0.5 0.65-0.6 1.05-0.3 0.334 0.2 0.384 0.55 0.15 1.05-0.833 1.367-1.8 2.633-2.9 3.8-0.467 0.467-0.8 0.833-1 1.1-0.399 0.4-0.666 0.85-0.8 1.35 0.867 0.3 1.55 0.367 2.05 0.2 0.634-0.167 1.101-0.65 1.4-1.45 0.233-0.633 0.617-0.833 1.15-0.6 0.3 0.133 0.449 0.316 0.449 0.55-0.033 0.1-0.133 0.333-0.3 0.7-0.2 0.367-0.183 0.633 0.05 0.8 0.134 0.1 0.417 0.167 0.851 0.2l6 0.35c9.467 0.433 15.149 0.667 17.05 0.7 6.133 0.167 11.3-0.066 15.5-0.7 1.8-0.267 3.316-1.133 4.55-2.6 1.167-1.467 1.717-3.033 1.65-4.7-0.101-3-0.033-6.583 0.2-10.75 0.133-2.433 0.35-6.033 0.649-10.8 0.167-3.333 0.184-7.333 0.05-12-0.133-2.667-0.3-6.65-0.5-11.95-0.033-1.5-0.083-3.733-0.149-6.7-0.033-2.633 0.033-4.883 0.2-6.75 0.199-1.8 0-3.267-0.601-4.4C76.208 16.617 76.574 15.883 77.908 15.45zM79.408 18.6c-0.033 1.567-0.051 2.75-0.051 3.55-0.199 6.733-0.1 13.033 0.301 18.9 0.3 4.1 0.433 8.167 0.399 12.2-0.433 11.067-0.683 19.383-0.75 24.95 0 3.433-0.566 6.35-1.7 8.75 1.7-0.8 2.95-1.684 3.75-2.65 0.834-1.067 1.268-2.4 1.301-4 0-0.4 0.05-1.15 0.149-2.25 0.067-0.967 0.083-1.717 0.05-2.25-0.033-2.1 0.117-8.367 0.45-18.8 0.167-5.2 0.184-9.066 0.05-11.6-0.133-1.967-0.116-4.167 0.051-6.6 0.033-1.067 0.199-3.25 0.5-6.55 0.199-3.433 0.3-5.417 0.3-5.95 0.1-2.267-0.017-4.267-0.351-6-0.166-1.1-0.433-1.833-0.8-2.2-0.333-0.333-1.05-0.633-2.149-0.9-0.634-0.167-1.051-0.117-1.25 0.15C79.458 17.55 79.375 17.967 79.408 18.6zM65.458 7c-0.7 0.567-1.65 0.767-2.851 0.6-1.967-0.3-4.517-0.533-7.649-0.7-4.134-0.2-6.65-0.35-7.55-0.45l-1.551-0.1c-0.333-0.1-0.5-0.316-0.5-0.65 0-0.367 0.2-0.55 0.601-0.55 0.3-0.1 0.7-0.15 1.2-0.15 3.399 0.067 9.267 0.483 17.6 1.25C65.058 6.25 65.291 6.5 65.458 7zM61.357 15.05c-0.166 3.9-0.133 6.917 0.101 9.05 0.833-0.5 1.217-1.15 1.149-1.95 0-1.034 0.367-1.65 1.101-1.85 0.833-0.233 1.566 0.133 2.2 1.1 0.199 0.366 0.533 0.917 1 1.65 0.399 0.566 0.899 0.966 1.5 1.2 0.199-0.633 0.316-1.417 0.35-2.35 0-0.5 0-1.233 0-2.2 0.133-2.667 0-4.25-0.4-4.75-0.467-0.5-2.05-0.85-4.75-1.05l-0.899-0.05C61.808 13.75 61.357 14.15 61.357 15.05zM60.658 35.2c-0.5-0.067-0.834-0.05-1 0.05l-8-1.45c-0.768-0.167-1.067-0.5-0.9-1 0.1-0.3 0.267-0.45 0.5-0.45 0.167 0 0.417 0.05 0.75 0.15 0.467 0.034 1.733 0.284 3.8 0.75 1.567 0.333 2.851 0.434 3.851 0.3 1.066-0.067 1.6 0.25 1.6 0.95C61.225 34.967 61.024 35.2 60.658 35.2zM59.308 37.2c1.4-0.4 2.55-0.184 3.45 0.65 0.934 0.9 1.267 2.05 1 3.45-0.367 1.9-0.717 3.283-1.05 4.15-0.567 1.467-1.384 2.65-2.45 3.55-1.566 1.4-3.5 1.983-5.8 1.75-0.533-0.066-0.934-0.1-1.2-0.1-0.467 0.033-0.816 0.216-1.05 0.55-1.267 1.533-2.167 2.717-2.7 3.55-0.133 0.167 0.083 0.583 0.65 1.25 2 2.567 3.283 4.1 3.85 4.6l1.45 1.5c0.5 0.533 0.45 1.184-0.15 1.95-0.533 0.667-1.116 0.583-1.75-0.25l-3.85-4.95c-0.967-1.3-1.601-2.083-1.9-2.35-0.7 0.6-1.45 1.4-2.25 2.4-1.167 1.533-1.816 2.366-1.95 2.5-0.199 0.267-0.883 1.116-2.05 2.55-0.533 0.667-0.883 1.05-1.05 1.15-0.467 0.333-0.9 0.333-1.3 0-0.5-0.467-0.583-0.9-0.25-1.3 0.2-0.267 0.566-0.6 1.1-1 1.134-1.4 2.9-3.434 5.3-6.1 1.2-1.3 1.334-2.55 0.4-3.75-0.367-0.467-1.083-1.55-2.15-3.25-0.6-1.1-1.533-1.733-2.8-1.9-1.066-0.1-2.35-0.983-3.85-2.65-1.467-1.634-2.25-3-2.351-4.1 0-0.367 0.134-0.6 0.4-0.7 0.2-0.066 0.383-0.066 0.55 0 0.267 0.1 0.5 0.3 0.7 0.6 0.133 0.133 0.316 0.367 0.55 0.7 0.767 1.066 1.25 1.7 1.45 1.9 0.566 0.733 1.233 1.283 2 1.65 0-0.767-0.25-1.6-0.75-2.5-0.667-1.133-1.05-1.867-1.15-2.2-0.033-0.2-0.116-0.5-0.25-0.9-0.033-0.333 0.101-0.583 0.4-0.75 0.4-0.233 0.85 0.05 1.35 0.85 0.167 0.233 0.634 1.1 1.4 2.6 0.566 1.1 1.133 1.917 1.7 2.45 0.7-0.966 1.05-1.733 1.05-2.3 0.033-0.633-0.283-1.35-0.95-2.15l-2.3-2.3c-0.5-0.466-0.55-0.9-0.15-1.3 0.4-0.467 0.867-0.533 1.4-0.2 1.733 1 2.917 2.4 3.55 4.2 0.601 1.833 0.483 3.683-0.35 5.55-0.434 0.934-0.467 1.667-0.101 2.2l2.95 4.8 2.65-3.05c0.333-0.4 0.483-0.867 0.45-1.4-0.334-1.867-0.117-3.7 0.649-5.5 0.634-1.267 1.7-2.8 3.2-4.6 0.633-0.8 1.217-1.133 1.75-1 0.434 0.1 0.867 0.066 1.3-0.1C58.357 37.534 58.774 37.4 59.308 37.2zM54.658 47.95c0.699 0.5 1.416 0.667 2.149 0.5 1.5-0.367 2.8-1.417 3.9-3.15 1.1-1.733 1.45-3.35 1.05-4.85-0.233-1.133-0.9-1.684-2-1.65-1.5 0.033-2.983 0.9-4.45 2.6-1.433 1.6-2.05 3.183-1.85 4.75C53.591 46.883 53.991 47.483 54.658 47.95zM80.857 32.35c-0.533-4.633-0.267-8.517 0.801-11.65v11.65H80.857zM82.408 66.85c0.1 1.533 0.017 2.85-0.25 3.95-0.233 1.033-0.384 2.267-0.45 3.7 0 0.167 0 1.417 0 3.75 0 0.967-0.017 1.667-0.05 2.1-0.134 0.833-0.417 1.483-0.851 1.95l-0.75-0.05 1.5-19.4c0.367 0 0.55 0.017 0.55 0.05C82.241 64.667 82.341 65.983 82.408 66.85zM54.758 71.3l-5.45-0.3c-1.6 0.1-4.533-0.033-8.8-0.4-0.867 0-1.267-0.283-1.2-0.85 0.033-0.433 0.434-0.583 1.2-0.45 1.867 0.3 4.133 0.466 6.8 0.5 1.5 0.033 3.783 0.066 6.851 0.1 0.433 0 0.717 0.033 0.85 0.1 0.3 0.067 0.4 0.317 0.3 0.75C55.274 71.083 55.091 71.267 54.758 71.3zM61.958 70.85c0.7 0.1 0.967 0.4 0.8 0.9s-0.467 0.667-0.9 0.5c-0.732-0.233-1.166-0.383-1.3-0.45-0.433-0.2-0.783-0.534-1.05-1 0.367-0.167 0.816-0.217 1.35-0.15C61.091 70.717 61.458 70.784 61.958 70.85zM63.107 93.7c0.367 0.066 0.634 0.267 0.801 0.6-0.134 0.433-0.384 0.667-0.75 0.7-0.467 0-0.801 0-1 0l-14.4-0.05c-0.5 0-0.783-0.017-0.85-0.05-0.301-0.167-0.467-0.384-0.5-0.65-0.101-0.367 0.066-0.6 0.5-0.7 0.333-0.067 0.616-0.083 0.85-0.05 1.767 0.267 4.15 0.333 7.15 0.2 3.5-0.133 5.899-0.15 7.199-0.05C62.308 93.684 62.641 93.7 63.107 93.7zM75.458 93.2c1.767-0.133 2.933-0.3 3.5-0.5 0.566-0.2 1.533-0.867 2.899-2 1.134-0.967 2.217-1.517 3.25-1.65-2.433 4.3-6.75 6-12.949 5.1C72.891 93.65 73.991 93.333 75.458 93.2zM20.008 17.4c1.5-0.9 2.717-2.083 3.65-3.55-1.101 0.3-1.934 0.667-2.5 1.1C20.591 15.517 20.208 16.333 20.008 17.4zM44.008 33.5c-1-0.133-2.017-0.617-3.05-1.45 0.833 0.033 2.017 0.083 3.55 0.15 1.333 0.066 2.517 0.267 3.55 0.6C46.391 33.4 45.041 33.633 44.008 33.5zM14.658 57.6c-0.533-3.167-0.733-5.65-0.601-7.45 0-0.733 0.25-1.117 0.75-1.15 0.5 0 0.75 0.367 0.75 1.1l0.05 7.8C14.975 58.034 14.658 57.934 14.658 57.6zM14.308 63.35c0.033-0.3 0.233-0.467 0.601-0.5 0.433-0.033 0.732 0.3 0.899 1l0.4 2.3c0.233 1.833 0.35 4.316 0.35 7.45 0.033 3.667 0.083 6.15 0.15 7.45 0.1 0.867-0.167 1.333-0.8 1.4-0.533 0.033-0.851-0.383-0.95-1.25-0.101-0.8-0.101-1.75 0-2.85 0.066-0.6 0.183-1.533 0.35-2.8l-1-11.35C14.241 63.767 14.241 63.483 14.308 63.35zM15.408 87.9c-0.2-0.467-0.033-0.75 0.5-0.85 0.6-0.067 0.982 0.267 1.149 1-0.1 0.6-0.3 0.917-0.6 0.95-0.333 0.034-0.583-0.083-0.75-0.35C15.675 88.583 15.574 88.333 15.408 87.9z" fill="#83b6b9" data-fill-palette-color="accent"></path></g></svg></g></svg></g><g><path d="M15.117 61.577v0c1.409 0.463 2.34 1.304 2.795 2.525 0.448 1.219 0.423 2.588-0.075 4.107v0c-0.552 1.681-1.362 2.997-2.43 3.948v0l-2.064-0.678c1.251-0.876 2.15-2.145 2.696-3.807v0c0.328-1 0.364-1.854 0.108-2.564-0.26-0.718-0.809-1.215-1.646-1.49v0c-0.351-0.115-0.684-0.149-1.002-0.102-0.322 0.038-0.647 0.176-0.977 0.413-0.334 0.228-0.621 0.458-0.863 0.687-0.241 0.23-0.55 0.546-0.925 0.947v0c-0.084 0.08-0.196 0.202-0.336 0.365v0c-0.522 0.584-0.94 1.022-1.251 1.315-0.305 0.295-0.722 0.622-1.25 0.981-0.53 0.365-1.078 0.577-1.644 0.636-0.566 0.059-1.173-0.018-1.822-0.232v0c-1.363-0.448-2.268-1.284-2.714-2.509-0.446-1.225-0.427-2.575 0.056-4.048v0c0.452-1.376 1.08-2.468 1.885-3.275v0l2.025 0.665c-0.954 0.758-1.651 1.809-2.093 3.153v0c-0.318 0.967-0.343 1.811-0.076 2.531 0.26 0.718 0.754 1.197 1.481 1.436v0c0.383 0.126 0.749 0.16 1.099 0.102 0.354-0.049 0.723-0.219 1.107-0.511 0.385-0.298 0.69-0.557 0.913-0.778 0.226-0.228 0.559-0.586 1-1.074v0c0.411-0.462 0.731-0.814 0.961-1.055 0.23-0.241 0.565-0.537 1.004-0.889 0.441-0.358 0.839-0.605 1.193-0.741 0.356-0.142 0.788-0.23 1.295-0.265 0.514-0.033 1.031 0.036 1.55 0.207z" fill="#1d597d" data-fill-palette-color="primary"></path><path d="M14.648 44.975l11.158 6.017-0.938 1.741-1.94-1.046c1.065 1.335 1.128 2.875 0.188 4.619v0c-0.593 1.101-1.39 1.793-2.389 2.077-0.999 0.284-2.049 0.129-3.15-0.464v0l-7.676-4.139 0.934-1.732 7.243 3.905c0.806 0.434 1.534 0.559 2.185 0.375 0.641-0.182 1.152-0.625 1.531-1.328v0c0.499-0.926 0.575-1.836 0.227-2.731-0.345-0.9-1.068-1.647-2.169-2.24v0l-6.143-3.313z" fill="#1d597d" data-fill-palette-color="primary"></path><path d="M28.055 45.073l5.313 4.335-1.231 1.508-13.642-11.13 1.231-1.509 1.492 1.218c-0.54-1.587-0.261-3.052 0.837-4.397v0c1.063-1.302 2.373-1.935 3.93-1.899 1.557 0.027 3.044 0.619 4.463 1.777v0c1.514 1.235 2.433 2.638 2.757 4.207 0.324 1.57-0.023 2.979-1.042 4.228v0c-1.054 1.292-2.423 1.846-4.108 1.662zM24.649 42.294v0c1.249 1.019 2.411 1.482 3.484 1.388 1.068-0.099 1.891-0.503 2.47-1.212v0c0.678-0.831 0.908-1.777 0.688-2.838-0.225-1.065-0.938-2.088-2.139-3.068v0c-1.069-0.872-2.147-1.319-3.231-1.341-1.08-0.017-1.939 0.367-2.579 1.15-0.644 0.789-0.912 1.707-0.806 2.755 0.101 1.044 0.805 2.099 2.113 3.166z" fill="#1d597d" data-fill-palette-color="primary"></path><path d="M43.502 29.077l1.193 1.421c-0.424 1.025-1.177 1.993-2.26 2.902v0c-1.47 1.235-3.033 1.78-4.689 1.636-1.656-0.144-3.105-0.956-4.349-2.436v0c-1.296-1.543-1.917-3.101-1.863-4.672 0.049-1.567 0.706-2.882 1.972-3.946v0c1.214-1.02 2.506-1.441 3.878-1.263 1.366 0.182 2.649 0.987 3.849 2.415v0c0.343 0.408 0.628 0.811 0.855 1.209v0l-6.623 5.564c0.919 0.861 1.9 1.29 2.943 1.288 1.038-0.007 2.055-0.428 3.049-1.262v0c1.088-0.914 1.77-1.866 2.045-2.856zM34.614 25.3v0c-0.727 0.611-1.125 1.396-1.194 2.355-0.068 0.949 0.26 1.945 0.984 2.988v0l5.203-4.37-0.323-0.385c-0.672-0.8-1.428-1.259-2.267-1.375-0.839-0.117-1.64 0.146-2.403 0.787z" fill="#1d597d" data-fill-palette-color="primary"></path><path d="M46.891 21.633l3.62 5.907-1.677 1.028-6.608-10.819 1.66-1.018 1.162 1.896c-0.247-1.684 0.326-2.953 1.718-3.805v0c0.256-0.157 0.464-0.269 0.624-0.335v0l1.023 1.669c-0.364 0.087-0.7 0.225-1.008 0.414v0c-0.757 0.464-1.171 1.195-1.241 2.191-0.072 1.006 0.17 1.963 0.727 2.872z" fill="#1d597d" data-fill-palette-color="primary"></path><path d="M66.647 16.946l0.81 1.96c-0.691 1.047-1.866 1.914-3.527 2.601v0c-2.342 0.969-4.545 1.033-6.607 0.193-2.06-0.834-3.603-2.491-4.63-4.973v0c-0.969-2.342-1.012-4.557-0.13-6.644 0.875-2.085 2.437-3.592 4.685-4.521v0c1.623-0.671 3.057-0.939 4.303-0.804v0l0.795 1.922c-0.828-0.072-1.543-0.075-2.145-0.011-0.599 0.07-1.341 0.288-2.225 0.654v0c-1.679 0.695-2.843 1.841-3.491 3.44-0.639 1.602-0.579 3.319 0.178 5.15v0c0.791 1.913 1.974 3.209 3.549 3.889 1.584 0.683 3.291 0.646 5.122-0.111v0c1.484-0.614 2.588-1.529 3.313-2.745z" fill="#1d597d" data-fill-palette-color="primary"></path><path d="M79.024 8.459l1.791 8.494-1.936 0.408-1.691-8.023c-0.19-0.903-0.568-1.549-1.132-1.94-0.571-0.389-1.231-0.505-1.979-0.347v0c-0.916 0.193-1.641 0.713-2.175 1.558-0.541 0.847-0.673 1.923-0.399 3.226v0l1.429 6.779-1.905 0.402-3.647-17.298 1.906-0.402 1.484 7.04c0.41-1.699 1.554-2.747 3.432-3.144v0c1.19-0.251 2.226-0.089 3.109 0.487 0.877 0.583 1.448 1.503 1.713 2.76z" fill="#1d597d" data-fill-palette-color="primary"></path><path d="M93.951 14.14l0.038 1.855c-0.973 0.533-2.167 0.814-3.58 0.843v0c-1.919 0.04-3.479-0.516-4.678-1.666-1.199-1.151-1.819-2.692-1.859-4.626v0c-0.042-2.015 0.451-3.618 1.479-4.807 1.021-1.19 2.358-1.802 4.011-1.836v0c1.585-0.033 2.856 0.45 3.812 1.448 0.95 0.999 1.444 2.43 1.483 4.295v0c0.011 0.533-0.02 1.025-0.092 1.478v0l-8.648 0.179c0.176 1.247 0.671 2.197 1.484 2.85 0.813 0.646 1.868 0.956 3.166 0.929v0c1.421-0.029 2.549-0.343 3.384-0.942zM89.397 5.624v0c-0.949 0.02-1.752 0.381-2.407 1.085-0.648 0.697-1.018 1.678-1.107 2.945v0l6.793-0.141-0.01-0.502c-0.022-1.045-0.323-1.876-0.903-2.493-0.58-0.617-1.369-0.915-2.366-0.894z" fill="#1d597d" data-fill-palette-color="primary"></path><path d="M105.928 5.317l-0.214 1.584-2.783-0.375-1.479 10.98-1.95-0.263 1.479-10.979-2.163-0.292 0.213-1.584 2.164 0.291 0.157-1.168c0.165-1.226 0.62-2.147 1.365-2.763 0.746-0.623 1.698-0.857 2.855-0.701v0c0.4 0.054 0.798 0.166 1.196 0.337v0l-0.239 1.777c-0.382-0.182-0.756-0.298-1.122-0.347v0c-0.528-0.071-0.986 0.053-1.374 0.373-0.387 0.313-0.631 0.849-0.734 1.607v0l-0.154 1.148z" fill="#1d597d" data-fill-palette-color="primary"></path><path d="M115.61 5.328v0l-2.238-0.636-1.84 6.466 2.445 0.695c1.111 0.316 2.043 0.258 2.798-0.173 0.757-0.438 1.27-1.13 1.539-2.077v0c0.615-2.162-0.286-3.587-2.704-4.275zM113.582 13.542l-0.197-0.056-2.327-0.662-1.82 6.397-1.952-0.555 4.614-16.215 4.061 1.155c1.879 0.535 3.177 1.38 3.893 2.535 0.72 1.164 0.86 2.521 0.418 4.073v0c-0.353 1.114-0.92 1.986-1.703 2.616-0.788 0.621-1.74 0.947-2.857 0.977v0l2.348 7.924-2.336-0.664z" fill="#1d597d" data-fill-palette-color="primary"></path><path d="M129.997 24.947l-0.823 1.662c-1.109 0.023-2.297-0.28-3.565-0.907v0c-1.721-0.852-2.847-2.065-3.379-3.639-0.532-1.575-0.369-3.228 0.49-4.961v0c0.894-1.806 2.072-3 3.533-3.58 1.455-0.583 2.924-0.508 4.405 0.226v0c1.421 0.703 2.324 1.719 2.712 3.046 0.381 1.325 0.158 2.823-0.67 4.494v0c-0.236 0.478-0.491 0.9-0.765 1.268v0l-7.752-3.838c-0.42 1.187-0.42 2.258-0.001 3.213 0.422 0.949 1.215 1.711 2.379 2.287v0c1.274 0.631 2.419 0.874 3.436 0.729zM129.894 15.29v0c-0.851-0.421-1.73-0.471-2.636-0.15-0.897 0.318-1.678 1.018-2.343 2.1v0l6.09 3.014 0.223-0.45c0.464-0.937 0.581-1.813 0.351-2.627-0.229-0.815-0.791-1.444-1.685-1.887z" fill="#1d597d" data-fill-palette-color="primary"></path><path d="M140.926 32.845l-1.102 1.517c-0.932-0.077-1.87-0.459-2.816-1.146v0c-1.62-1.177-2.529-2.627-2.729-4.351-0.2-1.724 0.238-3.327 1.315-4.809v0c1.06-1.459 2.447-2.369 4.161-2.728 1.714-0.36 3.394 0.059 5.041 1.256v0c0.873 0.634 1.519 1.391 1.937 2.268v0l-1.103 1.517c-0.314-0.87-0.891-1.61-1.731-2.22v0c-1.161-0.843-2.36-1.14-3.596-0.89-1.239 0.24-2.259 0.913-3.063 2.018v0c-0.796 1.119-1.13 2.287-1.001 3.504 0.129 1.217 0.799 2.265 2.01 3.145v0c0.785 0.57 1.677 0.876 2.677 0.919z" fill="#1d597d" data-fill-palette-color="primary"></path><path d="M152.553 29.523l-8.626 9.29-1.449-1.346 8.625-9.29zM155.833 25.869c0.013 0.357-0.106 0.671-0.357 0.942-0.246 0.265-0.546 0.402-0.898 0.41-0.343 0.008-0.65-0.114-0.92-0.364-0.27-0.251-0.412-0.546-0.425-0.884-0.008-0.343 0.111-0.647 0.358-0.912 0.251-0.27 0.55-0.417 0.898-0.44 0.343-0.018 0.649 0.099 0.919 0.35 0.27 0.251 0.412 0.55 0.425 0.898z" fill="#1d597d" data-fill-palette-color="primary"></path><path d="M149.619 42.436l-5.331 4.312-1.224-1.514 13.689-11.072 1.225 1.514-1.498 1.211c1.663-0.203 3.041 0.37 4.132 1.72v0c1.057 1.307 1.408 2.719 1.054 4.236-0.345 1.518-1.229 2.853-2.654 4.004v0c-1.519 1.229-3.08 1.841-4.683 1.837-1.603-0.004-2.911-0.633-3.925-1.887v0c-1.048-1.296-1.31-2.75-0.785-4.361zM153.038 39.672v0c-1.254 1.014-1.944 2.056-2.072 3.125-0.122 1.066 0.104 1.954 0.68 2.666v0c0.675 0.834 1.553 1.252 2.636 1.256 1.088-0.002 2.236-0.49 3.441-1.466v0c1.073-0.868 1.731-1.831 1.975-2.888 0.238-1.053 0.039-1.973-0.598-2.759-0.64-0.792-1.484-1.243-2.531-1.354-1.042-0.115-2.219 0.358-3.531 1.42z" fill="#1d597d" data-fill-palette-color="primary"></path><path d="M162.116 60.831l-1.634 0.878c-0.917-0.624-1.71-1.56-2.379-2.806v0c-0.908-1.692-1.122-3.333-0.643-4.924 0.48-1.591 1.571-2.844 3.275-3.759v0c1.776-0.953 3.427-1.243 4.954-0.869 1.524 0.368 2.677 1.281 3.459 2.738v0c0.75 1.397 0.898 2.748 0.443 4.054-0.457 1.3-1.508 2.391-3.151 3.274v0c-0.47 0.252-0.922 0.449-1.358 0.59v0l-4.092-7.621c-1.031 0.724-1.652 1.596-1.863 2.617-0.206 1.018-0.002 2.099 0.612 3.242v0c0.672 1.252 1.464 2.114 2.377 2.586zM167.631 52.904v0c-0.449-0.837-1.136-1.387-2.061-1.651-0.915-0.261-1.957-0.143-3.126 0.352v0l3.214 5.987 0.443-0.238c0.921-0.494 1.524-1.14 1.809-1.937 0.286-0.797 0.192-1.635-0.279-2.513z" fill="#1d597d" data-fill-palette-color="primary"></path><path d="M167.164 72.219v0c-1.02 0.352-1.955 0.274-2.803-0.236-0.848-0.509-1.486-1.384-1.915-2.624v0c-0.502-1.453-0.662-2.713-0.481-3.78v0l1.821-0.629c-0.269 1.271-0.194 2.514 0.225 3.728v0c0.252 0.73 0.585 1.233 0.998 1.509 0.416 0.283 0.869 0.34 1.36 0.17v0c0.568-0.196 0.935-0.558 1.1-1.084 0.171-0.529 0.286-1.349 0.343-2.461v0c0.039-1.018 0.223-1.888 0.552-2.608 0.336-0.723 0.946-1.237 1.831-1.543v0c0.988-0.341 1.909-0.24 2.761 0.304 0.844 0.54 1.46 1.371 1.849 2.495v0c0.43 1.246 0.605 2.307 0.523 3.18v0l-1.772 0.612c0.187-0.881 0.063-1.952-0.372-3.211v0c-0.216-0.626-0.534-1.077-0.955-1.351-0.418-0.268-0.856-0.322-1.314-0.164v0c-0.284 0.098-0.514 0.239-0.689 0.423-0.175 0.183-0.31 0.472-0.405 0.866-0.089 0.392-0.143 0.675-0.163 0.848-0.02 0.173-0.051 0.553-0.095 1.138v0c-0.065 1.15-0.258 2.099-0.578 2.846-0.329 0.743-0.936 1.267-1.821 1.572z" fill="#1d597d" data-fill-palette-color="primary"></path><path d="M8.538 120.179c-0.065 0.02-0.174-0.151-0.325-0.512-0.151-0.361-0.283-0.728-0.395-1.101-0.112-0.373-0.166-0.613-0.163-0.722 0.001-0.115 0.041-0.184 0.12-0.207v0l3.916-1.176-0.377-1.256c-0.022-0.072 0.046-0.156 0.202-0.254 0.156-0.097 0.401-0.195 0.735-0.295 0.34-0.102 0.655-0.158 0.946-0.166 0.29-0.009 0.453 0.046 0.487 0.163v0l1.48 4.928c0.028 0.092-0.039 0.179-0.199 0.263-0.16 0.084-0.401 0.174-0.722 0.27-0.321 0.096-0.631 0.154-0.932 0.173-0.308 0.021-0.479-0.027-0.514-0.145v0l-0.342-1.139z" fill="#1d597d" data-fill-palette-color="primary"></path><path d="M9.717 124.468v0c-0.21-0.542-0.246-1.015-0.11-1.419v0c0.055-0.161 0.169-0.329 0.342-0.507 0.169-0.168 0.394-0.307 0.675-0.415 0.274-0.106 0.542-0.133 0.804-0.08 0.256 0.055 0.477 0.152 0.663 0.292 0.182 0.149 0.361 0.336 0.536 0.562v0c0.244 0.345 0.454 0.747 0.632 1.206v0l0.115 0.296c0.242-0.094 0.382-0.243 0.42-0.448v0c0.017-0.087-0.002-0.204-0.059-0.351-0.057-0.147-0.163-0.307-0.319-0.481-0.155-0.174-0.3-0.312-0.435-0.414-0.135-0.102-0.212-0.178-0.231-0.229v0c-0.039-0.102 0.048-0.301 0.263-0.597 0.209-0.293 0.428-0.484 0.657-0.573v0c0.076-0.03 0.218 0.044 0.426 0.22 0.211 0.167 0.444 0.429 0.699 0.784 0.257 0.362 0.459 0.731 0.605 1.106 0.148 0.382 0.243 0.723 0.286 1.022 0.049 0.296 0.062 0.548 0.039 0.754-0.02 0.213-0.08 0.408-0.18 0.586-0.1 0.178-0.199 0.319-0.297 0.423-0.096 0.111-0.231 0.218-0.404 0.321v0c-0.208 0.125-0.472 0.249-0.79 0.372v0l-2.666 1.033c-0.064 0.025-0.175-0.112-0.334-0.409-0.162-0.304-0.303-0.612-0.424-0.924-0.118-0.306-0.187-0.51-0.205-0.613-0.015-0.097-0.017-0.158-0.005-0.185 0.018-0.029 0.055-0.058 0.109-0.086v0l0.477-0.273-0.026-0.067c-0.586 0.058-1.007-0.244-1.263-0.906zM11.648 125.083v0l1.032-0.4c-0.059-0.153-0.171-0.252-0.336-0.299-0.171-0.044-0.339-0.034-0.504 0.031v0c-0.389 0.151-0.548 0.315-0.48 0.493v0c0.03 0.076 0.072 0.13 0.128 0.16 0.056 0.03 0.109 0.035 0.16 0.015z" fill="#1d597d" data-fill-palette-color="primary"></path><path d="M12.875 131.785v0c-0.459-0.947-0.707-1.685-0.743-2.214v0c-0.009-0.269 0.033-0.426 0.125-0.47v0c0.234-0.113 0.54-0.178 0.919-0.195 0.382-0.011 0.597 0.033 0.645 0.132v0c0.03 0.061 0.062 0.285 0.097 0.67 0.029 0.388 0.098 0.696 0.209 0.924 0.11 0.227 0.197 0.368 0.26 0.42 0.06 0.062 0.134 0.072 0.22 0.03 0.08-0.039 0.116-0.128 0.109-0.269-0.004-0.135-0.039-0.292-0.104-0.473-0.065-0.181-0.121-0.382-0.167-0.603-0.046-0.221-0.071-0.436-0.075-0.647-0.004-0.211 0.06-0.416 0.191-0.616 0.134-0.209 0.305-0.364 0.515-0.466 0.215-0.104 0.378-0.176 0.488-0.214 0.11-0.038 0.283-0.065 0.519-0.081 0.232-0.006 0.443 0.036 0.631 0.127 0.197 0.094 0.42 0.279 0.667 0.554 0.25 0.266 0.471 0.596 0.662 0.989 0.191 0.393 0.338 0.728 0.441 1.005 0.104 0.276 0.171 0.502 0.203 0.676 0.035 0.165 0.048 0.311 0.04 0.436v0c-0.006 0.208-0.058 0.335-0.156 0.383v0c-0.221 0.107-0.518 0.153-0.891 0.136-0.366-0.02-0.572-0.076-0.616-0.168-0.048-0.098-0.098-0.328-0.152-0.69-0.054-0.361-0.116-0.616-0.188-0.763v0c-0.116-0.24-0.242-0.327-0.377-0.261v0c-0.086 0.042-0.11 0.156-0.073 0.342 0.034 0.181 0.085 0.395 0.152 0.644 0.067 0.248 0.114 0.51 0.142 0.786 0.033 0.272-0.022 0.542-0.166 0.809-0.138 0.264-0.373 0.477-0.705 0.637v0c-1.113 0.539-2.054 0.016-2.822-1.57z" fill="#1d597d" data-fill-palette-color="primary"></path><path d="M16.726 138.573c-0.147-0.049-0.321-0.249-0.522-0.598-0.201-0.349-0.348-0.651-0.439-0.906-0.086-0.258-0.119-0.535-0.1-0.83v0c0.038-0.55 0.483-1.071 1.336-1.562v0l1.279-0.736-0.241-0.418c-0.034-0.059 0.002-0.147 0.108-0.263 0.097-0.119 0.255-0.242 0.475-0.368 0.219-0.126 0.435-0.203 0.647-0.231 0.203-0.03 0.337 0.011 0.402 0.123v0l0.154 0.266 0.994-0.573c0.172-0.099 0.403-0.012 0.695 0.262 0.298 0.27 0.538 0.565 0.723 0.885v0c0.287 0.497 0.305 0.818 0.057 0.961v0l-1.19 0.685 0.353 0.613c0.082 0.142-0.084 0.333-0.499 0.571v0c-0.266 0.153-0.504 0.247-0.713 0.281-0.215 0.037-0.35 0.008-0.405-0.086v0l-0.281-0.488-1.501 0.864c-0.148 0.085-0.219 0.209-0.212 0.371 0.01 0.168 0.042 0.299 0.096 0.394 0.055 0.095 0.044 0.179-0.031 0.254-0.081 0.078-0.216 0.172-0.405 0.281v0c-0.367 0.211-0.627 0.294-0.78 0.248z" fill="#1d597d" data-fill-palette-color="primary"></path><path d="M20.912 141.178l-0.178-0.263c-0.345 0.233-0.407 0.514-0.185 0.843v0c0.126 0.187 0.358 0.389 0.694 0.607 0.337 0.218 0.511 0.335 0.522 0.352v0c0.065 0.096 0.003 0.328-0.186 0.695-0.189 0.367-0.355 0.598-0.496 0.693v0c-0.204 0.138-0.501 0.033-0.892-0.313-0.389-0.356-0.719-0.735-0.99-1.137-0.271-0.402-0.466-0.757-0.583-1.065-0.121-0.314-0.191-0.588-0.21-0.823-0.018-0.235-0.001-0.465 0.053-0.691 0.054-0.226 0.125-0.414 0.213-0.564 0.088-0.15 0.198-0.299 0.33-0.446v0c0.192-0.204 0.413-0.39 0.662-0.558v0c0.957-0.646 1.785-0.842 2.483-0.589v0c0.349 0.127 0.664 0.318 0.945 0.575 0.276 0.25 0.556 0.585 0.838 1.004v0c0.895 1.325 0.88 2.299-0.042 2.922v0c-0.98 0.661-1.972 0.248-2.978-1.242zM21.875 140.132v0l-0.518 0.35c0.099 0.147 0.243 0.232 0.431 0.254 0.184 0.016 0.364-0.035 0.539-0.154v0c0.317-0.214 0.42-0.403 0.309-0.568v0c-0.122-0.181-0.376-0.142-0.761 0.118z" fill="#1d597d" data-fill-palette-color="primary"></path><path d="M25.746 150.833c-0.153-0.023-0.36-0.188-0.62-0.496-0.26-0.308-0.457-0.58-0.592-0.814-0.13-0.239-0.212-0.505-0.245-0.799v0c-0.06-0.548 0.286-1.139 1.038-1.774v0l1.128-0.951-0.31-0.369c-0.044-0.052-0.024-0.145 0.06-0.278 0.074-0.134 0.208-0.283 0.401-0.446 0.193-0.163 0.392-0.277 0.596-0.342 0.195-0.066 0.334-0.049 0.418 0.05v0l0.198 0.235 0.878-0.74c0.151-0.128 0.395-0.083 0.73 0.135 0.341 0.213 0.63 0.461 0.868 0.743v0c0.37 0.439 0.445 0.751 0.226 0.935v0l-1.05 0.886 0.456 0.54c0.106 0.125-0.024 0.342-0.39 0.651v0c-0.235 0.198-0.453 0.332-0.652 0.402-0.205 0.075-0.343 0.07-0.414-0.013v0l-0.363-0.431-1.324 1.117c-0.131 0.11-0.178 0.244-0.143 0.402 0.039 0.163 0.094 0.287 0.164 0.371 0.07 0.084 0.075 0.169 0.015 0.255-0.066 0.091-0.182 0.208-0.35 0.349v0c-0.324 0.273-0.565 0.4-0.723 0.382z" fill="#83b6b9" data-fill-palette-color="accent"></path><path d="M29.141 154.198v0l1.894-1.845c0.343-0.334 0.575-0.589 0.699-0.766 0.133-0.177 0.147-0.319 0.042-0.427v0c-0.086-0.088-0.19-0.073-0.313 0.046v0l-2.687 2.618c-0.049 0.048-0.217-0.046-0.503-0.282-0.287-0.236-0.564-0.491-0.831-0.765-0.272-0.279-0.431-0.467-0.478-0.564-0.047-0.097-0.041-0.174 0.018-0.232v0l4.72-4.598c0.093-0.091 0.317-0.051 0.673 0.118 0.35 0.174 0.666 0.405 0.947 0.693v0c0.3 0.308 0.432 0.556 0.396 0.745v0c-0.006 0.063-0.031 0.116-0.074 0.158v0l-0.999 0.973-0.541 0.384 0.043 0.044c0.16-0.032 0.341-0.012 0.543 0.058v0c0.385 0.121 0.723 0.331 1.013 0.629v0c0.42 0.431 0.566 0.855 0.44 1.274-0.126 0.419-0.498 0.928-1.114 1.529v0l-2.1 2.045c-0.049 0.048-0.217-0.046-0.504-0.282-0.287-0.236-0.564-0.491-0.83-0.764-0.267-0.274-0.424-0.46-0.471-0.557-0.047-0.097-0.041-0.174 0.017-0.232z" fill="#83b6b9" data-fill-palette-color="accent"></path><path d="M35.451 157.454l-0.24-0.208c-0.273 0.315-0.26 0.602 0.04 0.862v0c0.17 0.148 0.446 0.283 0.827 0.406 0.382 0.123 0.58 0.191 0.596 0.205v0c0.088 0.076 0.088 0.316 0 0.719-0.088 0.403-0.187 0.67-0.299 0.799v0c-0.161 0.186-0.475 0.162-0.942-0.072-0.468-0.243-0.885-0.523-1.251-0.841-0.366-0.318-0.646-0.61-0.84-0.877-0.198-0.272-0.337-0.519-0.416-0.741-0.079-0.222-0.121-0.449-0.128-0.681-0.007-0.232 0.013-0.432 0.059-0.6 0.046-0.168 0.114-0.34 0.203-0.516v0c0.133-0.247 0.297-0.484 0.495-0.71v0c0.757-0.872 1.505-1.276 2.246-1.213v0c0.37 0.032 0.724 0.135 1.061 0.31 0.332 0.17 0.689 0.421 1.07 0.752v0c1.208 1.048 1.447 1.992 0.717 2.833v0c-0.775 0.893-1.841 0.75-3.198-0.427zM36.11 156.194v0l-0.41 0.473c0.134 0.116 0.295 0.161 0.482 0.132 0.182-0.032 0.342-0.128 0.481-0.288v0c0.251-0.289 0.301-0.498 0.152-0.628v0c-0.165-0.143-0.4-0.039-0.705 0.311z" fill="#83b6b9" data-fill-palette-color="accent"></path><path d="M41.818 164.948v0c-0.252-0.164-0.407-0.289-0.465-0.376-0.054-0.092-0.069-0.195-0.043-0.309v0l1.394-6c0.067-0.103 0.335-0.096 0.804 0.022 0.464 0.114 0.89 0.298 1.28 0.551v0c0.498 0.324 0.661 0.65 0.489 0.977v0l-1.367 2.705 0.112 0.073 1.865-2.381c0.224-0.294 0.683-0.216 1.376 0.234v0c0.264 0.171 0.419 0.321 0.466 0.449 0.043 0.134 0.033 0.262-0.03 0.384v0l-1.434 2.772 0.112 0.072 1.848-2.392c0.118-0.144 0.377-0.142 0.779 0.005 0.398 0.153 0.769 0.341 1.112 0.564 0.338 0.22 0.538 0.419 0.601 0.599 0.059 0.185 0.053 0.332-0.017 0.44v0l-4.922 3.83c-0.165 0.129-0.612-0.043-1.339-0.516v0c-0.218-0.141-0.353-0.254-0.405-0.336-0.048-0.089-0.054-0.186-0.017-0.293v0l0.478-1.657-0.095-0.061-1.32 1.109c-0.154 0.136-0.574-0.019-1.262-0.465z" fill="#1d597d" data-fill-palette-color="primary"></path><path d="M51.087 170.589v0c-0.42-0.215-0.766-0.438-1.039-0.67-0.267-0.229-0.475-0.496-0.625-0.803v0c-0.324-0.642-0.226-1.47 0.294-2.486v0c0.461-0.9 1.052-1.411 1.774-1.533v0c0.676-0.107 1.404 0.039 2.183 0.437v0c0.335 0.171 0.613 0.333 0.834 0.485 0.222 0.152 0.428 0.342 0.618 0.57 0.193 0.222 0.321 0.46 0.383 0.714 0.062 0.254 0.06 0.557-0.004 0.907-0.061 0.36-0.2 0.75-0.414 1.17v0c-0.439 0.858-1.012 1.378-1.72 1.56-0.701 0.186-1.463 0.069-2.284-0.351zM51.635 168.797c-0.066 0.219-0.087 0.358-0.063 0.417 0.021 0.064 0.068 0.115 0.141 0.152 0.067 0.034 0.133 0.041 0.197 0.02 0.061-0.015 0.161-0.113 0.3-0.295 0.142-0.188 0.291-0.434 0.447-0.738 0.159-0.31 0.274-0.551 0.346-0.721 0.075-0.177 0.124-0.317 0.146-0.42 0.025-0.094 0.034-0.178 0.025-0.252v0c-0.011-0.098-0.05-0.164-0.117-0.198-0.073-0.037-0.142-0.046-0.206-0.025-0.07 0.018-0.177 0.121-0.319 0.309-0.148 0.185-0.319 0.466-0.512 0.843-0.193 0.377-0.321 0.68-0.385 0.908z" fill="#1d597d" data-fill-palette-color="primary"></path><path d="M58.651 170.678v0l-1.061 2.566c-0.026 0.063-0.214 0.044-0.565-0.056-0.344-0.098-0.693-0.22-1.046-0.366-0.354-0.146-0.577-0.257-0.672-0.333-0.094-0.076-0.126-0.152-0.094-0.228v0l1.79-4.328c0.047-0.114 0.261-0.166 0.641-0.156 0.377 0.001 0.758 0.081 1.143 0.24 0.385 0.159 0.555 0.355 0.511 0.588v0l-0.07 0.437 0.057 0.024c0.173-0.187 0.448-0.295 0.822-0.326 0.372-0.024 0.713 0.029 1.022 0.157 0.316 0.131 0.516 0.272 0.601 0.425 0.087 0.147 0.098 0.299 0.032 0.458-0.063 0.152-0.156 0.342-0.28 0.571-0.127 0.236-0.292 0.474-0.496 0.716-0.212 0.245-0.391 0.337-0.536 0.277v0c-0.057-0.024-0.222-0.143-0.495-0.36-0.273-0.216-0.51-0.366-0.712-0.45-0.202-0.084-0.34-0.107-0.414-0.071-0.074 0.036-0.133 0.108-0.178 0.215z" fill="#1d597d" data-fill-palette-color="primary"></path><path d="M65.762 169.091v0l-2.203 6.384c-0.022 0.065-0.211 0.057-0.567-0.022-0.356-0.079-0.714-0.181-1.076-0.307-0.362-0.125-0.589-0.221-0.681-0.289-0.099-0.07-0.135-0.144-0.108-0.221v0l2.147-6.22c0.045-0.129 0.26-0.199 0.647-0.21 0.378-0.007 0.764 0.058 1.158 0.194v0c0.549 0.189 0.777 0.42 0.683 0.691z" fill="#1d597d" data-fill-palette-color="primary"></path><path d="M66.626 176.671v0c-0.231-0.063-0.433-0.153-0.606-0.271-0.18-0.12-0.319-0.246-0.417-0.379-0.098-0.133-0.171-0.295-0.218-0.485-0.047-0.19-0.073-0.367-0.079-0.531-0.013-0.159 0.001-0.354 0.043-0.583v0c0.049-0.334 0.129-0.708 0.242-1.124v0c0.232-0.85 0.563-1.454 0.994-1.811 0.437-0.355 0.926-0.459 1.466-0.312v0c0.56 0.153 0.93 0.395 1.108 0.727v0c0.037 0.074 0.06 0.158 0.069 0.253v0l0.069 0.019 0.064-0.663 0.313-1.147c0.036-0.132 0.243-0.217 0.622-0.255 0.377-0.032 0.763 0.006 1.159 0.114v0c0.415 0.113 0.661 0.265 0.736 0.456v0c0.023 0.07 0.027 0.135 0.011 0.194v0l-1.778 6.516c-0.018 0.066-0.2 0.073-0.547 0.02-0.354-0.054-0.685-0.123-0.995-0.207-0.316-0.086-0.518-0.152-0.605-0.197-0.08-0.043-0.127-0.081-0.139-0.112-0.019-0.034-0.022-0.077-0.007-0.13v0l0.063-0.545-0.069-0.019c-0.117 0.195-0.278 0.345-0.484 0.452v0c-0.255 0.129-0.593 0.136-1.015 0.02zM68.018 175.617v0c0.099 0.027 0.188-0.016 0.269-0.128v0l0.666-2.443c0.016-0.059-0.003-0.118-0.058-0.175-0.057-0.051-0.108-0.083-0.155-0.095v0c-0.204-0.056-0.437 0.394-0.697 1.35v0c-0.138 0.508-0.21 0.874-0.215 1.099 0.002 0.227 0.065 0.358 0.19 0.392z" fill="#1d597d" data-fill-palette-color="primary"></path><path d="M72.032 177.496v0c-0.022-0.13-0.009-0.309 0.039-0.536 0.049-0.234 0.155-0.411 0.319-0.53 0.159-0.127 0.436-0.15 0.83-0.069 0.401 0.083 0.653 0.216 0.755 0.398 0.102 0.182 0.119 0.433 0.053 0.754v0c-0.312 1.505-0.977 2.152-1.994 1.941v0c-0.094-0.019-0.164-0.149-0.212-0.389-0.04-0.245-0.046-0.432-0.02-0.559 0.028-0.134 0.062-0.197 0.102-0.189v0c0.127 0.026 0.237 0.018 0.33-0.025 0.091-0.037 0.154-0.087 0.188-0.15v0l0.039-0.086c-0.248-0.051-0.39-0.238-0.429-0.56z" fill="#1d597d" data-fill-palette-color="primary"></path><path d="M81.48 179.456v0c-0.523-0.053-0.971-0.147-1.341-0.281-0.364-0.133-0.69-0.341-0.977-0.624v0c-0.588-0.568-0.81-1.555-0.668-2.963v0c0.061-0.598 0.202-1.109 0.424-1.533 0.214-0.418 0.491-0.743 0.83-0.977v0c0.656-0.442 1.467-0.613 2.432-0.515v0c0.496 0.05 0.923 0.138 1.282 0.264 0.358 0.126 0.692 0.324 1 0.596v0c0.611 0.543 0.848 1.491 0.711 2.843v0c-0.123 1.21-0.512 2.07-1.169 2.581-0.656 0.51-1.497 0.713-2.524 0.609zM81.329 177.802c0.065 0.103 0.166 0.161 0.301 0.175 0.129 0.013 0.236-0.024 0.321-0.111 0.084-0.081 0.168-0.268 0.253-0.562 0.078-0.294 0.144-0.71 0.198-1.247 0.055-0.537 0.073-0.954 0.055-1.251-0.025-0.291-0.071-0.484-0.137-0.58-0.066-0.096-0.163-0.15-0.292-0.164-0.136-0.014-0.246 0.02-0.33 0.1-0.084 0.081-0.167 0.261-0.25 0.541-0.077 0.287-0.143 0.7-0.198 1.237-0.055 0.537-0.073 0.957-0.056 1.262 0.024 0.305 0.069 0.505 0.135 0.6z" fill="#83b6b9" data-fill-palette-color="accent"></path><path d="M92.062 176.684v0l-0.037 2.931c-0.001 0.068-0.183 0.121-0.546 0.157-0.363 0.036-0.735 0.052-1.117 0.047-0.383-0.005-0.632-0.025-0.748-0.061-0.109-0.036-0.163-0.094-0.162-0.176v0l0.039-3.023c0.004-0.287-0.004-0.475-0.024-0.564-0.019-0.089-0.039-0.168-0.058-0.236v0c-0.039-0.123-0.117-0.186-0.234-0.188v0c-0.178-0.002-0.268 0.082-0.269 0.253v0l-0.048 3.751c-0.001 0.068-0.183 0.121-0.545 0.157-0.356 0.036-0.725 0.052-1.108 0.047-0.383-0.005-0.632-0.025-0.747-0.06-0.116-0.036-0.173-0.094-0.172-0.177v0l0.059-4.683c0.002-0.137 0.188-0.268 0.559-0.393 0.364-0.132 0.747-0.196 1.15-0.19 0.41 0.005 0.637 0.124 0.682 0.357v0l0.087 0.421 0.062 0.001c0.189-0.367 0.51-0.619 0.962-0.756v0c0.185-0.052 0.387-0.077 0.606-0.075v0c0.642 0.008 1.074 0.205 1.294 0.591 0.221 0.385 0.325 1.009 0.315 1.869z" fill="#83b6b9" data-fill-palette-color="accent"></path><path d="M96.22 177.419l-0.317 0.022c0.03 0.416 0.242 0.609 0.638 0.582v0c0.225-0.016 0.516-0.116 0.872-0.299 0.357-0.183 0.545-0.275 0.566-0.277v0c0.116-0.008 0.286 0.161 0.509 0.508 0.223 0.347 0.341 0.606 0.354 0.776v0c0.018 0.245-0.221 0.451-0.717 0.617-0.502 0.159-0.995 0.256-1.479 0.29-0.484 0.035-0.889 0.026-1.214-0.026-0.332-0.052-0.605-0.128-0.818-0.229-0.213-0.101-0.404-0.231-0.573-0.39-0.169-0.159-0.296-0.314-0.382-0.466-0.086-0.151-0.16-0.321-0.222-0.508v0c-0.081-0.268-0.132-0.552-0.153-0.852v0c-0.082-1.152 0.161-1.967 0.729-2.447v0c0.284-0.24 0.607-0.417 0.969-0.531 0.355-0.114 0.784-0.19 1.289-0.226v0c1.595-0.114 2.432 0.384 2.511 1.495v0c0.084 1.179-0.77 1.833-2.562 1.961zM95.794 176.062v0l0.045 0.624c0.177-0.013 0.322-0.095 0.434-0.247 0.106-0.151 0.151-0.333 0.136-0.544v0c-0.027-0.382-0.14-0.565-0.338-0.551v0c-0.218 0.016-0.311 0.255-0.277 0.718z" fill="#83b6b9" data-fill-palette-color="accent"></path><path d="M105.61 176.082l0.369 1.912c0.016 0.081-0.163 0.184-0.534 0.312-0.367 0.119-0.741 0.216-1.124 0.29-0.382 0.074-0.634 0.102-0.756 0.083-0.116-0.026-0.184-0.086-0.202-0.18v0l-1.158-5.997c-0.031-0.161 0.151-0.318 0.546-0.471 0.396-0.146 0.903-0.279 1.52-0.398 0.624-0.12 1.027-0.195 1.209-0.223 0.188-0.036 0.408-0.068 0.66-0.096 0.252-0.028 0.456-0.036 0.611-0.024 0.157 0.018 0.329 0.044 0.516 0.078 0.187 0.033 0.342 0.094 0.464 0.182 0.123 0.095 0.245 0.207 0.367 0.336v0c0.22 0.236 0.377 0.599 0.471 1.088 0.096 0.496 0.093 0.932-0.008 1.307-0.096 0.367-0.265 0.664-0.507 0.891v0c0.935 0.988 1.433 1.637 1.493 1.945 0.058 0.302-0.526 0.571-1.754 0.808v0c-0.356 0.069-0.604 0.099-0.745 0.092-0.146 0-0.246-0.05-0.3-0.151v0l-0.975-1.805zM105.019 173.023l0.313 1.62 0.242-0.047c0.362-0.07 0.49-0.383 0.382-0.94v0c-0.056-0.288-0.146-0.483-0.27-0.584-0.116-0.096-0.238-0.132-0.365-0.107v0z" fill="#1d597d" data-fill-palette-color="primary"></path><path d="M113.024 174.395l-0.305 0.087c0.114 0.401 0.361 0.547 0.742 0.439v0c0.217-0.062 0.481-0.218 0.793-0.47 0.312-0.252 0.478-0.381 0.498-0.386v0c0.112-0.032 0.312 0.1 0.602 0.394 0.289 0.294 0.457 0.524 0.504 0.688v0c0.067 0.237-0.125 0.486-0.576 0.749-0.459 0.258-0.922 0.453-1.389 0.586-0.467 0.132-0.865 0.206-1.194 0.222-0.336 0.017-0.618-0.002-0.848-0.058-0.229-0.056-0.442-0.144-0.64-0.266-0.198-0.121-0.354-0.247-0.469-0.378-0.115-0.131-0.222-0.282-0.32-0.453v0c-0.134-0.246-0.242-0.514-0.324-0.803v0c-0.315-1.111-0.243-1.959 0.216-2.543v0c0.23-0.292 0.51-0.532 0.841-0.718 0.324-0.184 0.729-0.345 1.216-0.483v0c1.538-0.436 2.459-0.119 2.762 0.952v0c0.323 1.137-0.381 1.951-2.109 2.441zM112.331 173.154v0l0.171 0.601c0.171-0.048 0.296-0.159 0.375-0.33 0.073-0.17 0.08-0.356 0.022-0.56v0c-0.104-0.368-0.252-0.525-0.442-0.471v0c-0.21 0.06-0.252 0.313-0.126 0.76z" fill="#1d597d" data-fill-palette-color="primary"></path><path d="M118.657 174.686v0c-0.165-0.012-0.354-0.052-0.568-0.119-0.21-0.076-0.402-0.183-0.578-0.323v0c-0.406-0.331-0.736-0.843-0.99-1.535v0c-0.158-0.43-0.228-0.837-0.21-1.223 0.012-0.383 0.08-0.703 0.204-0.959 0.13-0.259 0.301-0.497 0.513-0.713v0c0.342-0.337 0.718-0.581 1.128-0.732v0c0.686-0.252 1.186-0.378 1.5-0.377 0.309 0.01 0.511 0.143 0.605 0.399 0.094 0.256 0.147 0.547 0.157 0.871 0.016 0.322-0.049 0.509-0.197 0.564v0c-0.045 0.017-0.208 0.018-0.489 0.005-0.281-0.013-0.509 0.012-0.682 0.076-0.173 0.064-0.282 0.184-0.326 0.361-0.038 0.174 0.018 0.463 0.166 0.867 0.146 0.398 0.288 0.655 0.426 0.771 0.138 0.117 0.293 0.143 0.466 0.08 0.18-0.066 0.375-0.207 0.587-0.424 0.218-0.219 0.343-0.334 0.375-0.345v0c0.109-0.04 0.268 0.054 0.476 0.284 0.202 0.232 0.34 0.45 0.415 0.655v0c0.118 0.321 0.034 0.606-0.252 0.857-0.286 0.251-0.711 0.48-1.276 0.688-0.571 0.21-1.054 0.301-1.45 0.272z" fill="#1d597d" data-fill-palette-color="primary"></path><path d="M123.641 167.574v0l1.871 4.293c0.027 0.063-0.117 0.185-0.433 0.368-0.316 0.182-0.649 0.35-0.999 0.502-0.351 0.153-0.586 0.237-0.706 0.252-0.114 0.012-0.187-0.019-0.22-0.094v0l-1.806-4.143c-0.055-0.125 0.057-0.323 0.334-0.593 0.271-0.267 0.601-0.485 0.989-0.655v0c0.526-0.229 0.849-0.206 0.97 0.07zM121.458 165.797v0c0.388-0.169 0.714-0.244 0.975-0.224 0.268 0.017 0.467 0.173 0.595 0.468v0c0.229 0.526-0.063 0.967-0.877 1.321-0.814 0.355-1.336 0.269-1.565-0.257-0.227-0.52 0.064-0.956 0.872-1.308z" fill="#1d597d" data-fill-palette-color="primary"></path><path d="M127.526 172.42v0l-2.779-5.37c-0.06-0.115 0.037-0.315 0.29-0.6 0.25-0.291 0.559-0.532 0.93-0.724v0c0.164-0.085 0.305-0.131 0.424-0.139 0.116-0.014 0.197-0.006 0.243 0.025v0c0.037 0.027 0.166 0.172 0.387 0.434v0l0.063-0.033c-0.013-0.055-0.002-0.16 0.033-0.316 0.038-0.15 0.085-0.282 0.141-0.397 0.053-0.12 0.155-0.25 0.306-0.389 0.148-0.146 0.337-0.278 0.568-0.397 0.237-0.122 0.476-0.181 0.717-0.175 0.248 0.003 0.453 0.05 0.616 0.142 0.163 0.092 0.326 0.228 0.487 0.406 0.165 0.184 0.283 0.338 0.355 0.463 0.078 0.121 0.178 0.3 0.3 0.536 0.126 0.243 0.239 0.484 0.341 0.725 0.104 0.246 0.196 0.498 0.276 0.757 0.077 0.268 0.119 0.512 0.125 0.731 0.006 0.22-0.018 0.433-0.074 0.638v0c-0.116 0.414-0.424 0.75-0.921 1.008v0c-0.182 0.094-0.352 0.152-0.511 0.172-0.168 0.018-0.304 0.007-0.408-0.031v0c-0.224-0.076-0.377-0.17-0.458-0.282v0l-0.052-0.078-0.072 0.038 0.509 0.694 0.494 0.956c0.031 0.061-0.104 0.192-0.407 0.395-0.303 0.203-0.624 0.392-0.964 0.568-0.34 0.176-0.575 0.278-0.706 0.308-0.131 0.029-0.215 0.008-0.253-0.065zM128.521 167.474c-0.248-0.479-0.445-0.801-0.591-0.964-0.149-0.169-0.275-0.227-0.378-0.173-0.103 0.053-0.146 0.149-0.129 0.286v0l1.144 2.212c0.075 0.146 0.189 0.179 0.341 0.1v0c0.194-0.1 0.065-0.588-0.387-1.461z" fill="#1d597d" data-fill-palette-color="primary"></path><path d="M134.579 164.702l-0.269 0.169c0.222 0.353 0.5 0.424 0.836 0.213v0c0.191-0.12 0.401-0.344 0.63-0.673 0.229-0.329 0.352-0.499 0.369-0.51v0c0.098-0.062 0.328 0.008 0.689 0.209 0.36 0.201 0.586 0.374 0.676 0.519v0c0.131 0.208 0.016 0.502-0.343 0.881-0.369 0.377-0.759 0.694-1.169 0.951-0.411 0.258-0.772 0.44-1.084 0.548-0.318 0.111-0.594 0.171-0.83 0.181-0.235 0.011-0.465-0.015-0.689-0.076-0.224-0.061-0.409-0.138-0.557-0.231-0.147-0.093-0.292-0.208-0.434-0.345v0c-0.197-0.199-0.376-0.426-0.535-0.68v0c-0.614-0.978-0.782-1.812-0.505-2.502v0c0.138-0.345 0.34-0.653 0.605-0.924 0.26-0.268 0.603-0.536 1.032-0.805v0c1.354-0.85 2.327-0.803 2.919 0.141v0c0.628 1.001 0.181 1.979-1.341 2.934zM133.566 163.704v0l0.332 0.53c0.15-0.094 0.24-0.235 0.268-0.422 0.022-0.183-0.023-0.365-0.136-0.544v0c-0.203-0.324-0.389-0.433-0.556-0.328v0c-0.185 0.116-0.154 0.371 0.092 0.764z" fill="#1d597d" data-fill-palette-color="primary"></path><path d="M142.986 161.486v0c-0.453 0.363-0.893 0.541-1.32 0.532v0c-0.17-0.004-0.365-0.062-0.586-0.174-0.211-0.111-0.411-0.283-0.599-0.518-0.184-0.229-0.29-0.477-0.319-0.742-0.025-0.26 0.002-0.5 0.079-0.72 0.087-0.219 0.212-0.446 0.374-0.681v0c0.256-0.336 0.576-0.658 0.959-0.966v0l0.248-0.199c-0.162-0.203-0.347-0.291-0.554-0.265v0c-0.089 0.01-0.194 0.064-0.317 0.162-0.123 0.098-0.244 0.248-0.363 0.449-0.119 0.201-0.207 0.381-0.263 0.539-0.056 0.159-0.106 0.256-0.149 0.29v0c-0.085 0.068-0.301 0.045-0.648-0.071-0.343-0.111-0.591-0.262-0.745-0.454v0c-0.051-0.064-0.024-0.221 0.082-0.472 0.096-0.252 0.275-0.553 0.536-0.904 0.267-0.355 0.558-0.658 0.873-0.91 0.32-0.256 0.616-0.45 0.888-0.58 0.268-0.136 0.503-0.224 0.707-0.265 0.209-0.045 0.413-0.047 0.613-0.005 0.2 0.041 0.364 0.094 0.493 0.156 0.135 0.059 0.277 0.154 0.428 0.288v0c0.182 0.161 0.379 0.375 0.593 0.641v0l1.788 2.231c0.043 0.053-0.054 0.201-0.289 0.442-0.241 0.246-0.492 0.473-0.753 0.683-0.256 0.205-0.43 0.332-0.523 0.38-0.087 0.044-0.146 0.064-0.175 0.061-0.033-0.009-0.072-0.035-0.115-0.079v0l-0.404-0.372-0.056 0.045c0.232 0.541 0.071 1.033-0.483 1.478zM142.99 159.459v0l-0.692-0.863c-0.128 0.103-0.189 0.239-0.184 0.41 0.01 0.176 0.07 0.333 0.182 0.472v0c0.261 0.325 0.466 0.428 0.615 0.308v0c0.064-0.051 0.102-0.108 0.113-0.17 0.012-0.062 0-0.114-0.034-0.157z" fill="#83b6b9" data-fill-palette-color="accent"></path><path d="M149.738 155.391c-0.015 0.154-0.17 0.369-0.465 0.644-0.295 0.275-0.556 0.486-0.783 0.633-0.232 0.142-0.494 0.237-0.785 0.285v0c-0.544 0.088-1.152-0.228-1.824-0.947v0l-1.007-1.078-0.352 0.328c-0.05 0.047-0.144 0.031-0.282-0.046-0.138-0.068-0.293-0.194-0.465-0.378-0.173-0.185-0.296-0.378-0.372-0.578-0.076-0.191-0.066-0.331 0.029-0.42v0l0.225-0.21-0.784-0.839c-0.135-0.145-0.103-0.39 0.098-0.736 0.196-0.351 0.428-0.652 0.698-0.904v0c0.419-0.392 0.727-0.483 0.923-0.273v0l0.937 1.004 0.517-0.483c0.12-0.112 0.343 0.007 0.669 0.356v0c0.21 0.225 0.355 0.435 0.436 0.632 0.085 0.201 0.087 0.339 0.007 0.413v0l-0.412 0.385 1.182 1.266c0.117 0.125 0.253 0.166 0.409 0.122 0.161-0.048 0.282-0.109 0.362-0.183 0.08-0.075 0.165-0.084 0.255-0.027 0.095 0.061 0.216 0.172 0.365 0.331v0c0.289 0.31 0.429 0.544 0.419 0.703z" fill="#83b6b9" data-fill-palette-color="accent"></path><path d="M154.226 150.844v0c-0.38 0.439-0.781 0.693-1.203 0.762v0c-0.168 0.027-0.37 0.005-0.608-0.066-0.228-0.071-0.455-0.205-0.682-0.402-0.222-0.192-0.371-0.417-0.448-0.672-0.071-0.252-0.088-0.493-0.051-0.723 0.046-0.231 0.128-0.477 0.245-0.737v0c0.191-0.377 0.448-0.751 0.769-1.123v0l0.209-0.24c-0.196-0.17-0.394-0.224-0.593-0.161v0c-0.085 0.025-0.179 0.098-0.283 0.216-0.103 0.119-0.195 0.288-0.276 0.507-0.081 0.219-0.135 0.412-0.162 0.578-0.027 0.167-0.058 0.271-0.094 0.312v0c-0.072 0.083-0.288 0.098-0.65 0.046-0.357-0.047-0.628-0.151-0.815-0.312v0c-0.062-0.054-0.064-0.213-0.005-0.479 0.049-0.265 0.171-0.593 0.366-0.985 0.199-0.397 0.431-0.748 0.695-1.053 0.268-0.31 0.525-0.553 0.768-0.73 0.239-0.182 0.455-0.311 0.648-0.388 0.198-0.082 0.398-0.12 0.602-0.116 0.204 0.005 0.375 0.026 0.513 0.065 0.143 0.033 0.3 0.102 0.473 0.206v0c0.208 0.126 0.44 0.3 0.698 0.524v0l2.161 1.873c0.052 0.045-0.017 0.207-0.205 0.487-0.193 0.285-0.399 0.554-0.618 0.807-0.215 0.248-0.363 0.404-0.446 0.468-0.078 0.059-0.132 0.089-0.16 0.091-0.034-0.002-0.077-0.021-0.128-0.056v0l-0.464-0.294-0.047 0.054c0.326 0.49 0.256 1.004-0.209 1.541zM153.865 148.85v0l-0.836-0.725c-0.107 0.124-0.143 0.269-0.107 0.436 0.041 0.171 0.129 0.315 0.263 0.432v0c0.315 0.273 0.535 0.337 0.66 0.193v0c0.054-0.062 0.081-0.124 0.082-0.188 0-0.063-0.02-0.112-0.062-0.148z" fill="#1d597d" data-fill-palette-color="primary"></path><path d="M161.455 140.843c0.057 0.038-0.007 0.23-0.192 0.575-0.185 0.345-0.386 0.679-0.604 1.002-0.219 0.322-0.371 0.516-0.457 0.582-0.09 0.071-0.168 0.084-0.236 0.038v0l-3.385-2.294-0.736 1.085c-0.042 0.062-0.15 0.063-0.324 0.004-0.174-0.06-0.405-0.188-0.693-0.384-0.294-0.199-0.536-0.409-0.726-0.628-0.19-0.219-0.25-0.38-0.181-0.482v0l2.886-4.258c0.054-0.079 0.164-0.083 0.33-0.012 0.166 0.071 0.388 0.201 0.665 0.389 0.277 0.188 0.518 0.392 0.723 0.614 0.21 0.225 0.281 0.389 0.212 0.49v0l-0.667 0.984z" fill="#83b6b9" data-fill-palette-color="accent"></path><path d="M160.322 133.767v0l4.035 2.376c0.059 0.035 0.014 0.218-0.134 0.551-0.148 0.333-0.32 0.664-0.514 0.994-0.194 0.33-0.335 0.536-0.423 0.619-0.085 0.077-0.163 0.094-0.234 0.053v0l-3.894-2.294c-0.118-0.069-0.144-0.295-0.078-0.676 0.063-0.375 0.201-0.746 0.416-1.11v0c0.291-0.495 0.566-0.666 0.826-0.513zM157.512 133.61v0c0.215-0.365 0.434-0.616 0.658-0.754 0.227-0.144 0.479-0.134 0.756 0.029v0c0.495 0.291 0.516 0.82 0.066 1.585-0.451 0.765-0.923 1.002-1.418 0.711-0.489-0.288-0.509-0.811-0.062-1.571z" fill="#83b6b9" data-fill-palette-color="accent"></path><path d="M166.229 125.682v0l2.623 1.262c0.062 0.03 0.034 0.213-0.083 0.551-0.12 0.344-0.263 0.689-0.429 1.033-0.166 0.345-0.288 0.559-0.366 0.643-0.081 0.09-0.159 0.117-0.232 0.082v0l-2.374-1.141c-0.819-0.394-1.268-0.507-1.348-0.342v0c-0.018 0.037-0.019 0.086-0.003 0.147 0.013 0.052 0.063 0.098 0.149 0.14v0l3.372 1.621c0.062 0.03 0.032 0.216-0.088 0.56-0.117 0.338-0.26 0.682-0.429 1.034-0.166 0.345-0.289 0.562-0.37 0.652-0.078 0.084-0.154 0.108-0.228 0.072v0l-2.374-1.141c-0.634-0.305-1.032-0.447-1.194-0.426v0c-0.079 0.007-0.135 0.045-0.167 0.112v0c-0.05 0.105 0.001 0.194 0.155 0.268v0l3.371 1.621c0.062 0.03 0.032 0.216-0.087 0.561-0.12 0.344-0.263 0.689-0.429 1.033-0.166 0.345-0.288 0.559-0.366 0.643-0.081 0.09-0.159 0.117-0.232 0.081v0l-4.221-2.029c-0.123-0.059-0.163-0.283-0.121-0.672 0.034-0.386 0.138-0.76 0.313-1.123 0.178-0.369 0.381-0.525 0.611-0.468v0l0.419 0.099 0.027-0.055c-0.246-0.323-0.346-0.708-0.298-1.156v0c0.028-0.184 0.102-0.402 0.224-0.654v0c0.24-0.499 0.671-0.742 1.295-0.731v0c-0.137-0.157-0.217-0.423-0.242-0.798-0.03-0.378 0.04-0.746 0.212-1.103v0c0.272-0.567 0.631-0.864 1.078-0.893 0.446-0.028 1.057 0.144 1.832 0.518z" fill="#83b6b9" data-fill-palette-color="accent"></path><path d="M168.562 122.171l-0.108 0.299c0.392 0.141 0.655 0.026 0.79-0.347v0c0.077-0.212 0.103-0.518 0.081-0.918-0.023-0.4-0.03-0.61-0.024-0.63v0c0.039-0.109 0.263-0.196 0.671-0.259 0.408-0.063 0.692-0.066 0.853-0.008v0c0.231 0.083 0.322 0.385 0.273 0.905-0.058 0.524-0.17 1.014-0.334 1.47-0.165 0.456-0.337 0.823-0.517 1.099-0.182 0.283-0.362 0.501-0.541 0.654-0.179 0.153-0.375 0.275-0.589 0.365-0.214 0.09-0.408 0.143-0.581 0.161-0.173 0.017-0.358 0.016-0.554-0.004v0c-0.278-0.035-0.558-0.103-0.842-0.205v0c-1.086-0.392-1.733-0.945-1.94-1.659v0c-0.104-0.357-0.135-0.724-0.093-1.101 0.039-0.371 0.145-0.794 0.317-1.27v0c0.543-1.504 1.338-2.067 2.385-1.689v0c1.112 0.401 1.363 1.447 0.753 3.137zM167.149 122.01v0l0.588 0.213c0.06-0.167 0.044-0.333-0.049-0.498-0.096-0.158-0.243-0.273-0.442-0.344v0c-0.36-0.13-0.573-0.102-0.641 0.084v0c-0.074 0.206 0.107 0.387 0.544 0.545z" fill="#83b6b9" data-fill-palette-color="accent"></path><path d="M165.512 117.201c-0.068-0.013-0.069-0.202-0.006-0.567 0.062-0.359 0.162-0.778 0.302-1.257 0.138-0.472 0.275-0.688 0.413-0.649v0c0.177 0.052 1.627 0.534 4.35 1.448v0c0.149 0.05 0.255 0.199 0.319 0.445 0.057 0.244 0.028 0.563-0.087 0.957v0c-0.155 0.531-0.376 0.766-0.663 0.703v0zM172.51 116.666c0.308 0.09 0.493 0.25 0.553 0.481 0.061 0.231 0.039 0.527-0.066 0.888-0.103 0.354-0.235 0.611-0.395 0.771-0.158 0.153-0.405 0.181-0.74 0.084v0c-0.551-0.16-0.719-0.611-0.502-1.353 0.216-0.741 0.599-1.032 1.15-0.871z" fill="#83b6b9" data-fill-palette-color="accent"></path><path d="M0.118 93.657c0-3.789 3.072-6.861 6.861-6.861 3.789 0 6.861 3.072 6.861 6.861 0 3.789-3.072 6.861-6.861 6.861-3.789 0-6.861-3.072-6.861-6.861z" data-fill-palette-color="primary" fill="#1d597d"></path><path d="M165.98 93.657c0-3.789 3.072-6.861 6.861-6.861 3.789 0 6.861 3.072 6.861 6.861 0 3.789-3.072 6.861-6.861 6.861-3.789 0-6.861-3.072-6.861-6.861z" data-fill-palette-color="primary" fill="#1d597d"></path></g></svg></g></svg></g></svg></g><g></g></svg></g></svg></g></svg></g><defs></defs></svg><rect width="320" height="360" fill="none" stroke="none" visibility="hidden"></rect></g></svg></g></svg>